<?xml version="1.0" standalone="no"?>
<!DOCTYPE svg PUBLIC "-//W3C//DTD SVG 20010904//EN"
 "http://www.w3.org/TR/2001/REC-SVG-20010904/DTD/svg10.dtd">
<svg version="1.0" xmlns="http://www.w3.org/2000/svg"
 width="640.000000pt" height="640.000000pt" viewBox="0 0 640.000000 640.000000"
 preserveAspectRatio="xMidYMid meet">

<g transform="translate(0.000000,640.000000) scale(0.100000,-0.100000)"
fill="#000000" stroke="none">
<path d="M3000 6334 c-128 -11 -318 -38 -425 -59 -896 -180 -1681 -758 -2124
-1563 -400 -727 -497 -1591 -266 -2387 209 -720 664 -1337 1294 -1753 360
-238 781 -403 1201 -471 666 -108 1340 -7 1930 289 252 126 487 287 696 477
407 370 700 817 872 1328 163 484 204 1003 121 1520 -122 760 -545 1475 -1154
1950 -81 63 -328 235 -339 235 -3 0 -29 14 -58 31 -82 49 -236 125 -334 165
-390 159 -743 232 -1164 239 -113 1 -225 1 -250 -1z m518 -75 c937 -103 1759
-606 2264 -1384 622 -959 662 -2188 105 -3182 -233 -414 -590 -799 -983 -1059
-1092 -722 -2510 -679 -3554 107 -320 241 -597 551 -799 893 -216 367 -355
780 -406 1212 -23 195 -21 539 5 739 73 565 288 1078 640 1525 107 135 365
393 500 500 443 349 957 566 1516 640 162 21 556 26 712 9z"/>
<path d="M2850 6224 c-968 -116 -1804 -669 -2295 -1519 -206 -356 -343 -785
-385 -1205 -16 -158 -13 -487 5 -647 66 -565 275 -1075 629 -1533 99 -128 308
-345 436 -452 817 -685 1919 -895 2930 -558 901 300 1620 1019 1920 1920 221
663 209 1379 -35 2035 -52 140 -179 399 -259 530 -174 281 -469 612 -716 802
-470 361 -1006 576 -1579 633 -143 14 -512 11 -651 -6z m670 -99 c0 -3 -9 -16
-20 -28 -12 -12 -32 -60 -46 -107 -14 -47 -34 -109 -44 -137 -11 -29 -18 -53
-15 -53 2 0 35 42 74 94 110 147 222 237 292 235 23 0 23 -1 5 -12 -97 -59
-241 -269 -261 -379 -6 -34 -5 -38 13 -38 12 0 38 20 62 47 23 26 47 48 53 48
7 0 30 10 52 21 57 30 92 36 118 22 12 -6 37 -11 55 -9 20 2 32 -2 32 -10 0
-6 -34 -49 -75 -96 -76 -85 -87 -103 -60 -103 12 0 173 133 183 150 14 28 22
32 46 26 17 -4 26 -13 26 -25 0 -17 3 -18 29 -8 39 14 81 -3 81 -35 0 -20 -13
-34 -119 -125 -19 -17 -31 -35 -27 -41 10 -17 52 3 90 43 62 66 196 105 232
69 11 -11 32 -20 48 -21 55 -2 47 -18 -49 -91 -96 -74 -111 -92 -76 -92 27 0
221 115 221 131 0 5 12 3 28 -3 37 -16 36 -16 22 -33 -11 -13 -7 -15 33 -15
51 0 72 -18 63 -53 -4 -16 -30 -37 -88 -68 -45 -25 -83 -50 -86 -57 -8 -24 48
-12 100 21 29 19 82 48 118 66 78 40 78 40 60 51 -22 14 -3 25 22 13 18 -8 32
-5 68 13 25 13 53 30 62 36 13 10 22 9 43 -2 14 -7 24 -18 22 -24 -2 -6 -27
-24 -56 -39 -39 -22 -49 -32 -42 -41 16 -19 3 -26 -23 -14 -27 12 -65 -3 -183
-70 -87 -49 -101 -65 -81 -89 10 -12 7 -13 -18 -7 -38 9 -56 24 -50 41 4 9 -5
13 -30 13 -71 0 -95 37 -51 77 12 12 53 38 90 58 37 21 66 42 64 49 -8 21 -63
5 -170 -50 -101 -51 -110 -54 -131 -41 -12 9 -33 17 -47 19 -20 2 -24 8 -23
34 l2 31 -50 -14 c-54 -16 -78 -7 -78 28 0 22 2 22 -39 8 -46 -16 -81 -5 -81
27 0 27 25 56 109 127 30 25 41 41 35 47 -15 15 -88 -25 -176 -98 -70 -58 -77
-62 -103 -52 -16 6 -34 9 -42 6 -24 -10 -43 6 -43 35 l0 28 -35 -20 c-19 -11
-47 -19 -62 -17 -24 2 -29 8 -31 36 l-3 32 -30 -21 c-35 -24 -77 -28 -90 -8
-26 42 27 182 111 289 36 46 38 50 11 25 -18 -16 -63 -73 -100 -125 -74 -102
-160 -190 -187 -190 -16 0 -16 1 1 19 13 16 119 301 111 301 -2 0 -38 -50 -81
-110 -156 -220 -272 -286 -350 -200 -58 64 12 241 117 296 29 15 86 18 105 6
23 -14 34 -63 23 -97 -12 -36 -56 -82 -67 -71 -4 4 -3 10 3 14 17 11 34 49 34
76 0 28 -33 56 -66 56 -35 0 -88 -42 -111 -90 -59 -116 2 -202 111 -156 54 23
111 81 215 221 92 123 169 205 191 205 6 0 10 -2 10 -5z m-940 -109 c0 -13 -7
-43 -15 -66 -19 -53 -19 -50 5 -50 28 0 25 -17 -3 -24 -20 -5 -28 -19 -46 -79
-29 -100 -45 -191 -37 -212 6 -17 9 -16 31 5 19 18 25 34 25 66 0 150 201 293
225 160 18 -94 -77 -236 -158 -236 -16 0 -36 4 -46 10 -14 7 -24 3 -46 -20
-31 -33 -65 -39 -85 -15 -15 18 -8 77 25 204 l23 90 -22 4 c-20 3 -20 4 5 14
25 11 44 55 51 123 2 14 13 30 28 37 35 18 40 16 40 -11z m-352 -193 c-3 -31
-34 -44 -44 -19 -9 24 3 46 26 46 17 0 21 -5 18 -27z m160 -60 c-2 -10 1 -55
6 -99 7 -69 5 -88 -9 -118 -20 -41 -66 -71 -98 -62 -14 3 -29 -4 -48 -25 -30
-33 -63 -38 -78 -11 -9 16 -10 16 -17 -3 -23 -63 -76 -75 -94 -20 -9 27 -8 47
4 95 20 77 20 79 -3 73 -15 -4 -21 -21 -30 -95 -13 -102 -28 -145 -65 -184
-20 -22 -30 -26 -58 -22 -29 5 -35 2 -48 -26 -17 -36 -44 -45 -69 -22 -17 16
-19 14 -24 -20 -6 -38 -32 -74 -52 -74 -27 0 -39 36 -51 143 -12 105 -11 113
6 131 19 19 19 19 29 -6 5 -13 12 -66 16 -117 4 -50 12 -94 17 -97 22 -14 29
27 25 148 -3 115 -2 130 15 145 10 9 21 13 25 10 3 -4 10 -49 14 -99 7 -95 15
-128 29 -128 15 0 21 40 15 94 -10 74 16 159 61 204 41 41 68 40 72 -6 3 -34
-8 -41 -28 -17 -35 43 -54 2 -55 -117 0 -60 4 -81 17 -94 16 -17 18 -17 37 0
30 27 50 90 61 191 5 50 10 93 10 98 0 4 8 7 19 7 10 0 30 10 45 21 15 12 29
19 32 17 2 -3 0 -28 -6 -55 -13 -61 -9 -165 6 -170 21 -7 54 121 54 208 0 28
6 42 22 53 38 27 42 5 23 -114 -10 -61 -15 -114 -11 -118 11 -10 43 36 62 88
9 25 22 59 29 75 7 17 18 48 25 70 16 50 27 65 51 65 12 0 18 -6 17 -17z
m-1118 -312 c0 -5 -7 -15 -16 -22 -27 -22 -13 -119 31 -214 102 -220 136 -333
136 -453 0 -126 -54 -234 -129 -257 -35 -10 -74 19 -70 53 4 35 40 42 61 11
23 -32 64 -19 83 26 29 71 12 158 -95 467 -53 153 -61 187 -61 250 l0 73 -20
-30 c-41 -62 -63 -137 -63 -221 -1 -70 2 -86 27 -128 25 -42 31 -47 59 -44 26
2 33 8 35 28 6 45 22 46 22 2 0 -86 -83 -123 -140 -62 -64 69 -63 215 4 355
47 99 136 208 136 166z m3657 -2 c18 -18 3 -39 -28 -39 -22 0 -29 5 -29 19 0
28 36 41 57 20z m-1397 -63 c369 -58 704 -200 1010 -429 123 -92 329 -297 414
-412 36 -49 69 -94 74 -100 62 -80 186 -317 242 -462 42 -109 87 -275 113
-417 30 -164 32 -566 4 -721 -88 -482 -291 -879 -622 -1211 -265 -267 -580
-452 -947 -559 -200 -58 -325 -77 -563 -82 -232 -6 -401 12 -595 61 -252 64
-547 197 -705 319 -5 4 -53 39 -105 77 -94 69 -309 277 -366 355 -16 22 -31
42 -35 45 -3 3 -27 36 -53 73 -206 297 -326 597 -383 952 -23 149 -23 495 1
647 23 148 49 256 95 386 51 146 56 158 125 292 179 352 439 640 766 853 79
51 273 155 348 185 168 70 398 132 562 151 52 6 109 13 125 15 63 9 404 -4
495 -18z m1278 -2 c32 -22 19 -33 -98 -84 -75 -32 -100 -47 -98 -59 5 -21 63
-19 88 4 25 22 104 45 157 45 53 0 113 -23 113 -44 0 -9 8 -16 18 -16 11 0 27
-9 36 -19 17 -18 14 -20 -95 -63 -112 -44 -146 -68 -94 -68 35 0 249 53 363
90 77 25 96 28 112 18 36 -23 21 -37 -62 -62 -46 -14 -136 -41 -201 -60 -126
-38 -137 -42 -137 -56 0 -22 90 -19 153 5 9 4 17 3 17 -3 0 -6 -31 -16 -70
-23 -89 -16 -150 -2 -150 34 0 13 5 28 12 35 9 9 2 12 -34 12 -26 0 -53 3 -62
6 -18 7 -22 39 -6 49 6 3 10 11 10 16 0 6 -5 7 -11 4 -6 -4 -31 -4 -55 0 -39
6 -45 10 -51 36 -5 24 -10 29 -35 29 -49 0 -69 16 -66 56 1 18 7 34 13 34 6 0
43 16 82 35 39 19 76 35 81 35 5 0 15 7 22 15 16 19 20 19 48 -1z m-3228 -29
c0 -9 16 -47 35 -85 39 -77 45 -132 20 -180 -16 -31 -44 -45 -73 -36 -14 5
-20 -3 -30 -39 -13 -49 -40 -70 -79 -60 -69 17 -87 226 -25 298 17 19 47 23
58 6 14 -23 4 -94 -20 -142 -26 -53 -24 -80 8 -106 13 -11 19 -11 31 -1 19 16
25 52 29 202 2 83 8 133 16 143 16 19 30 19 30 0z m3903 -429 c99 -23 196
-103 233 -191 18 -44 18 -128 0 -163 -58 -111 -229 -159 -356 -101 -80 37
-116 72 -151 147 -18 38 -53 90 -81 118 -54 56 -69 106 -37 127 24 15 61 -17
95 -83 l29 -55 70 1 c39 0 120 3 180 5 106 3 112 2 162 -25 51 -28 75 -56 48
-56 -7 0 -17 5 -21 11 -5 9 -37 10 -118 3 -61 -4 -153 -8 -203 -8 -54 0 -93
-4 -93 -10 0 -29 46 -98 78 -118 97 -61 332 5 373 104 47 115 -123 276 -266
253 -58 -9 -85 -30 -85 -66 0 -23 7 -34 30 -47 52 -30 26 -46 -28 -18 -63 33
-85 94 -47 136 16 18 89 47 120 49 6 0 36 -5 68 -13z m-4465 -534 c19 -6 14
18 -18 86 -16 34 -25 62 -21 62 10 0 59 -107 61 -135 6 -57 1 -67 -29 -63
l-29 4 1 -60 c2 -55 0 -61 -20 -64 -18 -3 -21 -9 -20 -48 0 -29 -6 -51 -16
-61 -25 -25 -59 -4 -112 69 -25 35 -54 73 -65 84 -21 23 -25 50 -11 73 13 20
25 8 86 -79 61 -87 79 -105 95 -95 16 10 2 45 -36 89 -62 73 -89 221 -46 256
10 9 17 21 15 27 -3 7 1 22 7 33 11 20 16 15 78 -76 37 -54 73 -100 80 -102z
m-329 -8 c-14 -17 -39 -1 -39 26 0 28 14 33 33 9 13 -17 15 -25 6 -35z m4896
6 c49 -23 67 -37 89 -73 15 -22 16 -30 6 -42 -26 -31 -94 -9 -151 48 -39 39
-72 47 -104 23 -38 -28 5 -63 120 -98 l60 -18 -48 5 c-74 7 -155 50 -175 92
-17 35 -16 35 11 59 23 20 39 24 90 24 40 0 76 -7 102 -20z m-4726 -286 c42
-53 36 -139 -10 -151 -15 -4 -18 -11 -13 -27 16 -48 1 -104 -31 -112 -23 -6
-24 -7 -10 -35 20 -38 19 -66 -4 -78 -31 -17 -89 24 -236 167 -109 106 -135
136 -130 152 4 11 10 20 15 20 4 0 77 -63 162 -140 132 -120 178 -156 178
-135 0 17 -27 54 -54 75 -62 46 -101 130 -94 205 3 35 6 40 27 40 37 0 62 -42
68 -116 7 -68 29 -101 68 -96 16 2 19 8 17 35 -2 35 -7 46 -87 195 -29 55 -44
94 -40 106 5 17 13 14 79 -30 41 -27 83 -60 95 -75z m4977 71 c147 -43 250
-182 182 -245 -31 -28 -83 -26 -248 11 -148 33 -177 34 -194 7 -36 -57 199
-158 369 -158 42 0 60 5 76 21 29 29 74 23 74 -11 0 -40 -58 -55 -163 -40
-220 30 -402 128 -402 217 0 58 89 67 257 27 59 -15 133 -27 163 -28 52 -1 55
0 58 25 4 37 -30 74 -103 110 -100 49 -205 43 -205 -11 0 -10 11 -27 25 -38
52 -41 13 -36 -43 5 -27 20 -33 31 -30 56 2 25 11 36 38 49 43 22 81 23 146 3z
m-5073 -533 c137 -119 175 -195 145 -287 -11 -35 -17 -40 -43 -40 -24 0 -31 5
-33 23 -3 21 0 23 30 20 33 -3 33 -3 32 39 -1 45 -25 81 -96 142 l-39 33 7
-40 c5 -35 3 -42 -16 -52 -53 -29 -164 51 -197 142 -14 41 -16 95 -3 103 6 3
7 17 4 31 -3 13 -3 31 0 40 6 17 36 -5 209 -154z m4995 106 c85 -27 103 -37
108 -56 4 -13 3 -26 -1 -30 -3 -4 -56 11 -117 32 -79 28 -113 35 -121 27 -18
-18 20 -49 76 -61 62 -13 104 -38 152 -91 31 -35 36 -47 32 -73 -5 -32 -5 -32
76 -64 45 -18 94 -36 110 -42 21 -7 27 -16 27 -40 0 -16 -2 -30 -5 -30 -6 0
-145 55 -215 85 -141 61 -192 77 -203 66 -14 -15 23 -46 63 -54 34 -7 102 -58
136 -102 21 -28 29 -50 30 -88 2 -29 5 -62 8 -74 3 -13 1 -23 -4 -23 -5 0 -52
23 -103 50 -93 50 -132 61 -125 38 3 -7 30 -31 61 -52 69 -48 68 -61 0 -16
-81 53 -117 130 -62 130 25 0 24 5 -6 44 -29 38 -31 62 -8 88 15 17 15 20 -6
42 -28 30 -24 57 11 74 24 11 32 10 65 -7 93 -47 171 -48 129 -2 -22 24 -167
101 -190 101 -28 0 -30 -29 -6 -56 13 -13 19 -24 14 -24 -6 0 -22 13 -37 28
-29 30 -35 60 -16 79 9 9 5 20 -15 43 -28 34 -33 59 -14 78 19 19 45 15 156
-20z m-5458 -27 c0 -20 48 -61 110 -95 157 -86 267 -179 310 -262 33 -64 36
-180 6 -213 -34 -37 -93 -19 -84 26 3 14 13 18 43 18 l40 0 3 46 c4 69 -36
115 -200 229 -155 108 -190 138 -215 189 l-18 36 -3 -34 c-2 -19 7 -66 19
-105 18 -55 33 -81 69 -117 72 -72 150 -76 136 -7 -7 35 7 37 22 3 40 -88 -39
-148 -125 -96 -37 23 -88 94 -108 152 -18 51 -34 174 -28 217 6 34 23 45 23
13z m5685 -45 c20 -15 15 -46 -8 -46 -20 0 -40 27 -33 45 7 19 17 19 41 1z
m-4073 -2427 c27 -7 43 -19 54 -41 15 -30 15 -34 -1 -64 -17 -32 -51 -54 -85
-54 -29 0 -33 17 -5 24 13 3 34 16 45 28 43 47 8 107 -52 86 -35 -12 -51 -36
-78 -113 -49 -141 -146 -191 -260 -132 -82 42 -106 112 -60 178 60 83 240 82
240 -1 0 -32 -43 -80 -72 -80 -17 0 -16 3 8 23 54 47 24 114 -46 103 -115 -18
-162 -163 -67 -210 81 -39 159 10 190 122 23 83 72 131 142 141 6 0 27 -4 47
-10z m2740 -91 c31 -81 38 -93 57 -90 25 4 27 -5 5 -29 -14 -16 -14 -20 1 -49
17 -32 14 -60 -5 -60 -5 0 -16 16 -24 35 -8 19 -19 35 -23 35 -5 0 -26 -12
-46 -26 -21 -14 -41 -23 -44 -20 -11 11 -4 131 12 207 8 41 15 77 15 82 0 4 4
7 9 7 4 0 24 -42 43 -92z m-219 -223 c32 -118 33 -120 60 -117 15 1 27 1 27
-2 0 -2 -31 -20 -70 -39 -65 -32 -96 -38 -50 -9 25 15 25 33 0 141 -27 113
-32 121 -61 96 -26 -23 -24 -18 16 52 35 61 24 77 78 -122z m-2464 26 c10 -10
30 -21 45 -25 14 -3 26 -11 26 -16 0 -5 -33 -27 -72 -49 -91 -49 -120 -70
-113 -81 6 -9 39 -1 99 25 21 9 40 14 42 12 6 -6 -89 -46 -125 -53 -40 -8 -73
11 -66 39 6 20 2 22 -41 22 -93 0 -79 64 26 118 66 33 149 38 179 8z m2092
-81 c1 -33 3 -64 4 -70 1 -5 3 -26 4 -46 1 -31 4 -36 21 -31 24 6 28 -20 5
-29 -11 -4 -15 -21 -15 -55 0 -37 -4 -49 -15 -49 -10 0 -17 14 -21 40 -7 46
-5 45 -67 26 -46 -14 -47 -13 -47 7 0 45 102 267 122 267 4 0 9 -27 9 -60z
m-1906 -21 c0 -9 15 -16 39 -19 23 -3 44 -13 50 -23 13 -21 -11 -45 -98 -101
-91 -58 -61 -79 38 -26 31 17 56 25 56 20 0 -17 -111 -64 -152 -64 -87 -1 -73
51 31 115 62 38 90 69 62 69 -22 0 -83 -28 -158 -72 -74 -44 -113 -53 -113
-27 0 5 34 32 77 61 42 29 88 63 102 74 27 23 66 19 66 -7z m2060 10 c4 -12 2
-26 -3 -31 -17 -17 -42 -1 -42 27 0 32 35 35 45 4z m-1102 -50 c44 -12 50 -31
8 -23 -45 9 -92 -26 -164 -119 -156 -205 -254 -292 -368 -328 -74 -23 -97 -24
-150 -3 -46 19 -66 53 -49 85 23 42 64 14 46 -32 -13 -37 1 -49 60 -49 61 0
132 57 299 239 92 101 159 164 197 188 32 20 58 38 58 41 0 2 -31 2 -68 0
-133 -10 -267 -98 -260 -171 3 -30 5 -32 41 -31 49 2 47 -12 -5 -26 -55 -15
-91 9 -96 64 -9 103 158 193 338 181 41 -3 92 -10 113 -16z m1127 -104 c16
-20 5 -45 -20 -45 -14 0 -20 7 -20 23 0 38 18 48 40 22z m-594 -69 c4 -16 -6
-46 -30 -94 -20 -40 -36 -79 -36 -87 0 -28 37 2 66 53 34 58 33 57 40 49 9 -9
-53 -103 -84 -127 -13 -11 -35 -20 -48 -20 -40 0 -39 37 0 123 38 80 42 97 27
97 -18 0 -63 -65 -104 -146 -31 -62 -46 -83 -64 -87 -28 -5 -27 -1 28 126 22
48 39 94 39 101 0 8 10 16 23 20 33 9 37 8 37 -10 0 -13 5 -12 26 5 37 29 72
28 80 -3z m-606 -24 c0 -11 -22 -51 -50 -90 -53 -75 -59 -92 -35 -92 17 0 101
99 130 153 15 29 25 37 47 37 16 0 28 -4 28 -9 0 -5 -16 -31 -35 -57 -49 -70
-67 -103 -63 -122 3 -12 30 11 97 80 97 100 147 132 175 108 10 -7 16 -8 21 0
6 10 55 15 55 5 0 -3 -20 -41 -44 -85 -55 -100 -63 -120 -42 -120 9 0 31 22
48 50 18 27 37 50 41 50 15 0 -68 -109 -91 -120 -35 -15 -52 -12 -52 10 0 25
-2 25 -46 -5 -20 -14 -40 -25 -43 -25 -20 1 -33 22 -34 54 -1 20 -3 36 -5 36
-2 0 -12 -11 -23 -24 -22 -28 -77 -56 -96 -49 -7 3 -13 16 -13 29 l0 23 -36
-24 c-41 -28 -55 -30 -72 -13 -20 20 -14 42 29 108 22 35 45 74 50 87 11 29
59 33 59 5z"/>
<path d="M3745 5811 c-42 -25 -135 -126 -135 -146 0 -50 70 -14 145 74 65 76
59 115 -10 72z"/>
<path d="M4233 5655 c-41 -17 -117 -69 -142 -97 -21 -22 -18 -48 5 -48 35 0
170 86 193 123 23 36 -2 46 -56 22z"/>
<path d="M2665 5818 c-58 -69 -91 -182 -60 -208 15 -13 20 -11 45 17 53 59 90
208 54 220 -6 2 -24 -11 -39 -29z"/>
<path d="M2316 5658 c-34 -80 -39 -115 -23 -137 13 -20 16 -21 31 -6 12 12 16
36 16 96 0 43 -2 79 -6 79 -3 0 -11 -15 -18 -32z"/>
<path d="M3035 5384 c-387 -41 -687 -140 -999 -331 -188 -116 -427 -331 -561
-507 -235 -307 -384 -656 -442 -1032 -24 -155 -23 -480 1 -634 77 -492 293
-912 647 -1257 52 -50 123 -114 159 -142 36 -28 70 -54 75 -58 32 -26 211
-135 270 -166 203 -106 408 -176 640 -218 171 -31 473 -37 656 -14 341 43 644
158 959 363 30 20 57 39 60 43 3 4 21 17 40 30 43 30 122 100 216 194 339 337
557 782 619 1260 20 155 19 422 -1 567 -72 525 -306 973 -695 1333 -251 233
-587 416 -919 501 -171 44 -324 64 -510 68 -96 2 -193 2 -215 0z m60 -63 c-18
-17 -65 -21 -65 -5 0 10 12 14 37 14 23 0 33 -4 28 -9z m428 -11 c13 -11 -123
-1 -142 11 -11 7 8 8 59 3 41 -3 79 -10 83 -14z m-229 -21 c27 -13 36 -35 36
-91 0 -32 -3 -38 -21 -38 -11 0 -18 4 -15 8 2 4 -5 9 -17 9 -12 1 -23 7 -25
13 -5 15 -22 12 -22 -5 0 -8 9 -20 20 -27 11 -7 20 -19 20 -26 0 -17 -42 -9
-107 20 -27 12 -54 17 -69 14 -27 -7 -30 1 -10 29 7 11 14 25 15 30 0 6 12 10
26 11 14 1 38 12 53 26 42 39 73 46 116 27z m-357 -17 c31 -17 32 -18 13 -30
-17 -10 -21 -10 -26 2 -6 15 -52 17 -58 1 -3 -8 -40 -11 -100 -6 -8 1 -17 8
-20 17 -4 11 -1 14 13 9 10 -3 42 1 72 9 68 19 68 19 106 -2z m653 8 c-20 -13
-63 -13 -55 0 3 6 21 10 38 10 24 0 28 -3 17 -10z m-831 -110 c19 -35 31 -71
30 -91 l-1 -34 -7 35 c-11 54 -61 129 -61 92 0 -5 -12 -14 -27 -21 -20 -9 -33
-9 -55 0 -31 13 -37 29 -10 29 14 0 15 2 2 10 -20 13 -33 13 -25 0 3 -5 3 -10
-1 -10 -14 0 -84 34 -84 41 0 9 56 29 80 29 10 0 30 -10 44 -21 21 -17 25 -24
14 -30 -7 -5 -8 -9 -3 -9 6 0 17 5 25 10 13 9 13 12 -1 20 -11 6 -15 18 -11
35 l5 26 27 -26 c16 -15 42 -53 59 -85z m291 74 c0 -2 -7 -4 -15 -4 -8 0 -15
4 -15 10 0 5 7 7 15 4 8 -4 15 -8 15 -10z m736 -11 c-10 -11 -37 -12 -30 -2 3
5 12 9 21 9 9 0 13 -3 9 -7z m-1301 -32 c-3 -6 -14 -11 -23 -11 -15 1 -15 2 2
15 21 16 32 13 21 -4z m1445 -31 c0 -5 -5 -10 -11 -10 -5 0 -7 5 -4 10 3 6 8
10 11 10 2 0 4 -4 4 -10z m70 0 c13 -8 13 -10 -2 -10 -9 0 -24 -3 -34 -7 -16
-6 -17 -5 -4 10 18 19 20 20 40 7z m-989 -30 l24 -19 -29 -1 c-16 0 -26 3 -23
7 4 3 2 12 -4 20 -17 20 5 16 32 -7z m-621 -10 c0 -5 -7 -10 -16 -10 -8 0 -12
5 -9 10 3 6 10 10 16 10 5 0 9 -4 9 -10z m1480 6 c0 -3 -4 -8 -10 -11 -5 -3
-10 -1 -10 4 0 6 5 11 10 11 6 0 10 -2 10 -4z m135 -6 c3 -6 -1 -7 -9 -4 -18
7 -21 14 -7 14 6 0 13 -4 16 -10z m-1349 -16 c-9 -8 -16 -22 -16 -30 0 -16 -2
-16 -24 -8 -12 5 -10 10 12 30 30 26 52 33 28 8z m1302 -8 c17 -10 15 -26 -4
-26 -8 0 -12 5 -9 10 4 6 -7 10 -24 10 -17 0 -31 3 -31 8 0 9 52 8 68 -2z m29
-18 c-3 -7 -5 -2 -5 12 0 14 2 19 5 13 2 -7 2 -19 0 -25z m-1724 8 c24 -18 21
-29 -5 -23 -13 3 -32 1 -43 -3 -19 -8 -19 -8 5 -19 23 -9 21 -10 -20 -10 -25
0 -56 -2 -70 -6 -14 -3 -3 6 24 20 28 14 56 25 63 25 7 0 13 7 13 15 0 18 9
19 33 1z m1828 -17 c-12 -12 -25 -18 -29 -14 -4 3 4 15 18 25 32 24 40 16 11
-11z m-1031 1 c0 -5 -10 -10 -22 -11 -13 0 -17 -3 -10 -6 17 -7 5 -23 -19 -23
-14 0 -18 4 -12 13 4 6 8 15 9 20 1 4 2 9 3 12 2 10 51 5 51 -5z m800 0 c13
-9 13 -11 0 -20 -10 -6 -16 -6 -19 1 -2 6 -11 3 -22 -7 -19 -17 -69 -28 -69
-14 0 4 7 13 16 21 12 10 17 10 23 0 6 -9 10 -7 14 8 5 22 32 27 57 11z m-605
-15 c68 -17 17 -18 -60 0 -47 10 -52 13 -25 13 19 0 58 -6 85 -13z m470 -7 c7
-7 2 -8 -15 -2 -14 4 -43 7 -65 6 -34 0 -36 1 -15 8 28 9 80 3 95 -12z m200
12 c3 -5 -1 -10 -9 -10 -9 0 -16 5 -16 10 0 6 4 10 9 10 6 0 13 -4 16 -10z
m240 0 c3 -5 -1 -10 -10 -10 -9 0 -13 5 -10 10 3 6 8 10 10 10 2 0 7 -4 10
-10z m-1431 -13 c17 -13 18 -14 2 -20 -9 -4 -15 -3 -11 2 3 5 -7 14 -22 19
-23 9 -24 11 -7 11 11 1 28 -5 38 -12z m1563 -20 c18 -10 30 -23 27 -28 -3 -5
5 -9 18 -9 20 -1 21 -2 7 -13 -9 -7 -14 -18 -12 -24 3 -7 1 -13 -4 -13 -5 0
-15 6 -22 13 -11 10 -13 9 -8 -6 4 -10 2 -28 -4 -39 -8 -16 -8 -23 2 -29 10
-6 8 -9 -9 -9 -19 0 -22 4 -17 20 5 16 3 19 -12 13 -15 -5 -14 -2 4 13 l22 20
-35 1 c-19 1 -31 -3 -28 -8 3 -5 0 -9 -5 -9 -6 0 -11 5 -11 11 0 6 -9 8 -22 3
-20 -6 -21 -5 -10 9 8 9 11 21 7 27 -3 6 3 10 14 10 12 0 21 7 21 15 0 9 7 18
15 21 8 4 15 11 15 16 0 6 -7 8 -15 5 -15 -6 -29 6 -19 16 8 7 45 -4 81 -26z
m-1179 16 c-10 -2 -28 -2 -40 0 -13 2 -5 4 17 4 22 1 32 -1 23 -4z m1082 -19
c0 -8 -4 -13 -9 -10 -5 3 -18 -12 -29 -35 -11 -22 -23 -36 -27 -30 -3 6 -1 19
5 30 14 27 13 34 -6 27 -8 -3 -12 -2 -9 4 3 6 15 10 25 10 10 0 22 5 25 10 9
15 25 12 25 -6z m-595 -4 c-3 -5 -12 -10 -18 -10 -7 0 -6 4 3 10 19 12 23 12
15 0z m-956 -7 c-4 -22 4 -32 31 -43 46 -19 47 -31 1 -24 -45 7 -49 4 -25 -20
14 -15 9 -16 -58 -17 -105 -1 -143 2 -146 12 -5 13 -52 11 -52 -3 0 -6 -8 -4
-19 6 -11 10 -45 26 -77 35 -31 10 -52 21 -47 24 12 8 83 -13 104 -30 8 -7 28
-13 44 -13 23 0 26 2 15 15 -7 8 -23 15 -37 15 -32 0 -21 16 16 23 20 4 44 -2
82 -22 49 -25 57 -26 84 -15 17 7 43 13 59 14 28 0 28 0 12 25 -14 22 -15 25
-1 25 8 0 14 -3 14 -7z m247 -5 c33 -15 77 -55 92 -85 17 -31 15 -35 -10 -27
-13 4 -34 7 -48 6 -18 -1 -21 1 -11 7 16 10 6 31 -15 31 -8 0 -14 6 -14 13 0
7 -10 21 -22 31 -21 18 -21 18 -38 -5 -17 -21 -18 -22 -22 -3 -8 40 35 56 88
32z m664 -13 c-7 -9 -15 -13 -17 -11 -7 7 7 26 19 26 6 0 6 -6 -2 -15z m211
-8 c-13 -13 -26 -3 -16 12 3 6 11 8 17 5 6 -4 6 -10 -1 -17z m-617 -2 c28 -8
63 -17 79 -20 15 -3 27 -9 27 -14 0 -18 -51 -21 -86 -6 -21 8 -52 16 -71 18
-36 2 -39 7 -21 25 15 15 11 15 72 -3z m534 -5 c23 22 42 26 42 10 0 -5 -5
-10 -11 -10 -5 0 -7 -5 -4 -11 11 -17 -35 -52 -66 -52 -39 0 -46 9 -24 33 10
11 13 20 8 20 -6 0 -14 7 -17 16 -5 12 1 11 23 -5 28 -20 28 -20 49 -1z
m-1493 0 c3 -5 -3 -10 -14 -10 -11 0 -23 5 -26 10 -3 6 3 10 14 10 11 0 23 -4
26 -10z m1890 0 c-3 -5 -10 -10 -16 -10 -5 0 -9 5 -9 10 0 6 7 10 16 10 8 0
12 -4 9 -10z m-45 -10 c8 -5 11 -10 5 -10 -5 0 -17 5 -25 10 -8 5 -10 10 -5
10 6 0 17 -5 25 -10z m-270 -31 c0 -5 -12 -9 -27 -9 -27 1 -27 1 -9 15 19 14
36 12 36 -6z m-1570 -10 c0 -5 -9 -9 -19 -9 -11 0 -22 4 -25 9 -3 5 6 9 19 9
14 0 25 -4 25 -9z m1396 2 c-9 -14 -95 -41 -130 -41 -17 0 -48 -5 -69 -11 -22
-6 -41 -8 -44 -5 -10 9 55 35 103 41 27 3 65 10 84 14 48 12 62 13 56 2z
m-767 -25 c21 -19 34 -56 20 -56 -5 0 -9 4 -9 10 0 5 -12 21 -26 35 -20 20
-32 25 -54 20 -17 -4 -31 -2 -36 6 -11 19 83 5 105 -15z m1251 20 c0 -2 -7 -7
-16 -10 -8 -3 -12 -2 -9 4 6 10 25 14 25 6z m-1840 -33 c19 -2 40 -9 45 -14 7
-7 1 -8 -19 -3 -16 4 -38 8 -50 9 -34 4 -36 5 -36 16 0 5 5 7 12 3 7 -4 28 -9
48 -11z m1585 7 c3 -5 -1 -10 -9 -10 -8 0 -18 5 -21 10 -3 6 1 10 9 10 8 0 18
-4 21 -10z m208 -6 c-3 -8 -12 -13 -19 -10 -8 3 -14 1 -14 -5 0 -6 -5 -7 -10
-4 -15 9 -1 27 16 21 7 -3 16 -1 19 4 10 16 15 12 8 -6z m-391 -24 c-18 -11
-35 -20 -38 -20 -12 0 10 22 30 30 38 15 42 10 8 -10z m858 10 c0 -5 -7 -10
-16 -10 -8 0 -12 5 -9 10 3 6 10 10 16 10 5 0 9 -4 9 -10z m-2167 -17 c-7 -2
-19 -2 -25 0 -7 3 -2 5 12 5 14 0 19 -2 13 -5z m2017 -10 c0 -10 -20 -40 -20
-31 0 3 -3 13 -6 22 -4 11 -1 16 10 16 9 0 16 -3 16 -7z m200 -8 c0 -2 -10
-10 -22 -16 -21 -11 -22 -11 -9 4 13 16 31 23 31 12z m-1824 -26 c28 -23 13
-26 -52 -13 -36 8 -69 16 -74 19 -4 2 -20 -1 -37 -7 -18 -7 -40 -8 -59 -3 -28
9 -28 9 16 16 60 10 189 2 206 -12z m288 15 c21 -8 21 -41 1 -41 -9 0 -14 6
-11 14 3 7 1 13 -4 13 -6 0 -10 5 -10 10 0 12 3 12 24 4z m580 -9 c-7 -17 -7
-17 -31 -8 -16 6 -15 8 7 14 14 4 26 7 27 8 1 1 0 -6 -3 -14z m192 0 c-3 -8
-1 -15 4 -15 6 0 10 -5 10 -10 0 -7 -7 -7 -21 0 -16 9 -18 14 -8 26 15 18 23
18 15 -1z m-676 -16 c11 -8 8 -9 -13 -4 -18 3 -26 2 -23 -4 8 -12 -11 -24 -24
-16 -8 5 -7 11 1 21 14 17 38 18 59 3z m-203 -24 c15 -13 23 -25 16 -25 -6 0
-15 5 -18 10 -4 6 -10 8 -15 5 -13 -8 -52 14 -45 26 10 16 33 10 62 -16z m50
-1 c-3 -3 -12 -4 -19 -1 -8 3 -5 6 6 6 11 1 17 -2 13 -5z m183 -4 c0 -5 -4
-10 -10 -10 -5 0 -10 5 -10 10 0 6 5 10 10 10 6 0 10 -4 10 -10z m1440 1 c0
-5 3 -18 7 -28 6 -17 6 -17 -10 -1 -19 18 -22 38 -7 38 6 0 10 -4 10 -9z
m-922 -23 c-6 -18 72 -37 148 -38 86 0 122 -9 129 -31 4 -11 22 -23 45 -29 43
-12 41 -5 75 -210 9 -51 18 -96 22 -100 6 -5 -3 70 -13 110 -4 14 -4 22 0 19
3 -3 14 -43 24 -88 l17 -83 57 -4 c34 -2 73 2 99 11 46 17 89 20 49 4 -14 -6
-35 -20 -47 -31 -21 -20 -22 -22 -5 -35 16 -14 16 -14 -3 -8 -11 3 -32 9 -47
12 -15 3 -33 12 -39 19 -6 8 -23 14 -37 14 -23 0 -24 -3 -19 -37 4 -21 12 -42
20 -48 8 -6 10 -21 6 -40 -5 -24 -7 -27 -13 -13 -5 10 -13 15 -19 11 -6 -4 -8
0 -4 9 8 22 -17 53 -45 55 -13 1 -43 8 -68 16 -25 8 -101 24 -170 36 -69 11
-145 25 -170 30 -59 13 -196 14 -240 1 -38 -11 -113 -67 -105 -80 11 -18 -87
1 -145 29 -62 30 -64 31 -149 21 -169 -19 -376 -24 -427 -10 l-47 13 -40 -43
-39 -44 25 -7 c22 -6 174 9 186 18 3 2 -4 10 -15 18 -28 21 -6 18 31 -5 44
-27 72 -81 58 -112 l-11 -23 -7 28 c-7 26 -15 31 -42 28 -6 -1 -14 3 -18 9 -3
5 2 10 12 11 13 0 12 3 -7 11 -44 17 -158 -9 -202 -48 -40 -36 -78 -59 -78
-47 1 4 23 24 50 43 l50 35 -33 15 c-18 8 -63 14 -104 15 -39 0 -75 4 -80 8
-4 5 32 7 81 6 l90 -3 12 49 c6 28 24 100 38 161 36 157 54 194 96 208 24 8
40 22 52 46 9 19 21 40 26 46 15 17 145 35 309 42 164 8 222 1 265 -30 l28
-19 1 -202 c1 -111 5 -213 9 -227 5 -14 9 71 9 200 l2 225 37 25 c34 23 47 25
166 27 72 1 134 7 140 13 14 14 29 13 24 -2z m887 -8 c-3 -5 -11 -10 -16 -10
-6 0 -7 5 -4 10 3 6 11 10 16 10 6 0 7 -4 4 -10z m45 -30 c8 -5 11 -12 8 -16
-4 -3 -14 1 -23 10 -18 17 -9 21 15 6z m-2107 -17 c-7 -2 -13 -9 -13 -14 0 -6
5 -7 12 -3 7 4 8 3 4 -5 -6 -9 -11 -9 -22 0 -12 10 -12 14 -2 20 7 5 18 8 23
8 6 0 4 -3 -2 -6z m-142 -15 c22 -6 39 -15 39 -20 0 -4 -17 -1 -37 6 -21 8
-45 17 -53 19 -32 11 13 7 51 -5z m93 -3 c11 -8 16 -15 10 -15 -5 0 -18 7 -28
15 -11 8 -16 15 -10 15 5 0 18 -7 28 -15z m2201 -12 c-9 -8 -18 -13 -21 -10
-8 8 19 36 29 30 4 -2 0 -11 -8 -20z m-2230 -2 c3 -5 2 -12 -3 -15 -5 -3 -9 1
-9 9 0 17 3 19 12 6z m85 -21 c0 -5 -2 -10 -4 -10 -3 0 -8 5 -11 10 -3 6 -1
10 4 10 6 0 11 -4 11 -10z m2100 0 c0 -5 -4 -10 -10 -10 -5 0 -10 5 -10 10 0
6 5 10 10 10 6 0 10 -4 10 -10z m-2303 -6 c-3 -3 -12 -4 -19 -1 -8 3 -5 6 6 6
11 1 17 -2 13 -5z m148 -52 c-3 -3 -11 0 -18 7 -9 10 -8 11 6 5 10 -3 15 -9
12 -12z m40 -12 c3 -6 -1 -7 -9 -4 -18 7 -21 14 -7 14 6 0 13 -4 16 -10z
m2085 -9 c-13 -25 -30 -36 -30 -20 0 6 8 18 18 25 23 18 24 17 12 -5z m-2900
-1 c0 -5 -6 -10 -14 -10 -8 0 -18 5 -21 10 -3 6 3 10 14 10 12 0 21 -4 21 -10z
m2944 -57 c-10 -55 -24 -79 -35 -62 -7 11 -10 9 -15 -8 -4 -13 -11 -23 -16
-23 -6 0 -3 10 5 23 9 12 26 41 37 65 12 23 24 42 26 42 3 0 2 -17 -2 -37z
m-2434 -13 c11 -7 5 -8 -19 -3 -27 5 -32 3 -26 -7 6 -10 2 -11 -17 -7 -18 5
-28 2 -32 -8 -3 -8 -12 -15 -19 -15 -18 0 -137 -38 -160 -51 -11 -6 -21 -8
-25 -5 -3 3 15 15 39 25 24 11 54 29 66 40 14 13 36 21 60 22 21 0 47 4 58 9
27 12 57 12 75 0z m-396 -32 c-3 -4 -11 -5 -19 -1 -21 7 -19 12 4 10 11 0 18
-5 15 -9z m351 -10 c11 2 40 -4 64 -13 24 -8 46 -13 50 -12 3 2 16 -7 28 -20
l23 -23 -26 6 c-15 4 -51 -1 -84 -11 -57 -17 -117 -14 -105 5 3 5 0 18 -6 28
-10 15 -9 23 2 35 8 8 19 12 24 9 6 -4 19 -5 30 -4z m-308 -34 c-3 -3 -12 -4
-19 -1 -8 3 -5 6 6 6 11 1 17 -2 13 -5z m2773 -30 c0 -8 -4 -12 -10 -9 -5 3
-10 13 -10 21 0 8 5 12 10 9 6 -3 10 -13 10 -21z m-2730 -5 c0 -8 -70 0 -80 8
-2 2 15 3 38 2 23 -2 42 -6 42 -10z m2275 -8 c-3 -6 -11 -11 -17 -11 -6 0 -6
6 2 15 14 17 26 13 15 -4z m471 -72 c18 -69 17 -94 -2 -50 -11 25 -18 31 -27
22 -6 -6 -17 -11 -24 -11 -20 0 -15 28 7 40 11 6 20 17 20 25 0 11 -6 12 -31
3 -22 -8 -27 -13 -18 -19 18 -11 6 -21 -15 -13 -19 7 -21 18 -3 31 13 11 70
32 75 28 2 -2 10 -27 18 -56z m84 32 c0 -6 -4 -13 -10 -16 -5 -3 -10 1 -10 9
0 9 5 16 10 16 6 0 10 -4 10 -9z m-200 -15 c0 -8 7 -22 16 -31 9 -9 15 -17 13
-19 -2 -1 -17 -12 -33 -24 -19 -15 -33 -19 -45 -13 -15 9 -99 -12 -111 -28
-15 -19 -80 -39 -106 -32 -27 7 -26 8 29 36 60 30 72 45 36 45 -18 0 -16 4 15
25 44 30 71 33 37 4 -13 -11 -21 -22 -18 -25 7 -7 45 12 72 36 18 15 66 37 88
39 4 1 7 -5 7 -13z m-2160 -41 c19 -7 28 -14 20 -16 -8 -1 3 -5 25 -10 33 -6
29 -7 -23 -4 -42 2 -67 -1 -76 -10 -11 -11 -20 -10 -55 6 -24 10 -47 16 -52
13 -5 -3 -9 0 -9 5 0 10 25 15 61 12 8 -1 26 3 40 8 30 12 27 12 69 -4z m-130
-45 c45 -18 69 -43 31 -33 -12 3 -21 9 -21 14 0 5 -16 9 -36 9 -32 0 -35 -2
-23 -16 7 -9 24 -20 37 -25 14 -5 23 -12 20 -14 -3 -3 -37 11 -76 30 -69 35
-72 35 -102 20 -44 -23 -37 -10 11 19 47 27 80 26 159 -4z m1220 20 c-8 -5
-22 -9 -30 -9 -10 0 -8 3 5 9 27 12 43 12 25 0z m1522 -22 c-7 -7 -12 -8 -12
-2 0 6 3 14 7 17 3 4 9 5 12 2 2 -3 -1 -11 -7 -17z m-1572 8 c0 -2 -9 -6 -20
-9 -11 -3 -18 -1 -14 4 5 9 34 13 34 5z m-557 -13 c-13 -2 -33 -2 -45 0 -13 2
-3 4 22 4 25 0 35 -2 23 -4z m1087 -24 c19 -10 52 -21 73 -24 20 -4 40 -11 43
-16 7 -12 -86 -4 -136 11 -19 5 -62 10 -95 10 -55 1 -58 2 -41 15 11 8 28 15
39 15 10 0 15 5 12 11 -10 15 61 0 105 -22z m13 24 c-7 -2 -19 -2 -25 0 -7 3
-2 5 12 5 14 0 19 -2 13 -5z m-1280 -20 c-7 -2 -19 -2 -25 0 -7 3 -2 5 12 5
14 0 19 -2 13 -5z m1357 -3 c13 -9 13 -10 0 -10 -8 0 -22 5 -30 10 -13 9 -13
10 0 10 8 0 22 -5 30 -10z m480 1 c0 -10 -149 -71 -171 -71 -24 0 129 73 164
79 4 0 7 -3 7 -8z m180 -42 c0 -6 -4 -7 -10 -4 -5 3 -10 11 -10 16 0 6 5 7 10
4 6 -3 10 -11 10 -16z m-1809 -25 c23 -11 58 -44 47 -44 -2 0 -19 11 -38 25
-19 14 -46 25 -61 25 -15 0 -31 4 -34 10 -8 12 51 2 86 -16z m-551 -1 c0 -21
-23 -40 -41 -36 -15 4 -20 3 -15 -6 4 -6 11 -9 15 -6 5 2 16 -4 26 -15 17 -19
17 -20 -2 -20 -11 0 -30 -11 -43 -25 -15 -16 -27 -22 -33 -16 -6 6 -19 6 -34
0 -19 -7 -30 -5 -50 11 -14 11 -32 20 -40 20 -12 0 -11 3 2 16 15 16 19 16 51
0 33 -15 37 -15 59 1 13 10 23 23 21 28 -3 10 -12 12 -66 14 -24 1 -24 1 -5
15 32 22 74 32 116 28 21 -2 39 -6 39 -9z m1618 -2 c7 -1 10 -5 7 -11 -4 -6
-41 -8 -92 -5 -89 5 -123 11 -123 23 0 6 78 3 208 -7z m912 15 c0 -2 -7 -7
-16 -10 -8 -3 -12 -2 -9 4 6 10 25 14 25 6z m90 -1 c0 -14 -41 -85 -50 -85 -5
0 -14 8 -19 18 -10 16 -11 15 -12 -3 -1 -11 -1 -24 1 -30 1 -5 -7 -2 -18 8
-26 23 -37 22 -62 -10 -11 -15 -28 -28 -37 -29 -11 -2 -10 2 6 17 26 25 27 36
0 44 -28 9 -19 16 32 21 23 3 63 16 88 29 45 23 71 31 71 20z m-2243 -27 c21
-17 15 -31 -12 -26 -25 5 -34 -5 -15 -17 7 -4 7 -13 0 -26 -6 -11 -9 -23 -6
-27 3 -5 -8 -7 -23 -4 -43 6 -168 -16 -209 -37 -20 -10 -45 -28 -56 -39 -22
-26 -69 -37 -93 -23 -15 9 -12 10 18 11 25 0 52 11 92 40 30 22 60 40 66 40 6
0 28 15 48 33 80 70 127 98 153 92 14 -4 31 -11 37 -17z m1418 2 c3 -5 1 -10
-4 -10 -6 0 -11 5 -11 10 0 6 2 10 4 10 3 0 8 -4 11 -10z m695 5 c0 -2 -10
-10 -22 -16 -21 -11 -22 -11 -9 4 13 16 31 23 31 12z m-461 -29 c23 -13 22
-13 -22 -25 -25 -6 -54 -11 -64 -11 -10 0 -35 -8 -55 -19 l-37 -18 2 29 c2 24
8 30 37 38 83 21 109 22 139 6z m327 -22 c-11 -8 -25 -14 -30 -14 -6 0 -3 5 7
11 9 5 17 17 17 26 0 14 2 15 13 4 10 -10 8 -15 -7 -27z m-3286 22 c0 -2 -7
-9 -15 -16 -13 -11 -14 -10 -9 4 5 14 24 23 24 12z m130 -11 c0 -7 -8 -19 -17
-25 -15 -9 -13 -10 10 -5 15 3 27 1 27 -5 0 -10 -26 -14 -62 -11 -11 2 -18 -4
-18 -14 0 -8 -10 -20 -22 -25 -18 -7 -19 -9 -5 -9 9 -1 17 -6 17 -12 0 -7 -10
-9 -25 -5 -16 4 -25 2 -25 -6 0 -9 -3 -9 -12 1 -11 10 -9 15 7 28 11 8 13 13
5 9 -8 -3 -23 -9 -32 -12 -21 -7 -23 -20 -5 -27 6 -2 -12 -4 -40 -3 -40 2 -50
0 -43 -10 13 -15 -30 -28 -44 -14 -7 7 -4 10 6 10 9 0 15 8 14 18 0 9 5 16 12
14 7 -1 15 4 18 13 3 8 22 17 42 21 21 4 40 11 43 17 4 6 16 3 30 -7 29 -20
64 -23 38 -3 -15 11 -15 14 0 27 8 8 19 14 22 13 4 -1 15 7 24 17 21 24 35 26
35 5z m2127 -17 c8 -6 19 -5 33 2 12 6 23 10 25 8 17 -20 35 -75 34 -105 -1
-21 -3 -29 -6 -18 -9 36 -20 37 -28 3 -4 -18 -9 -27 -12 -21 -3 9 -10 10 -24
3 -14 -8 -19 -7 -20 2 0 7 -6 0 -13 -16 -10 -22 -14 -25 -19 -12 -9 24 -26 19
-39 -11 -12 -28 -12 -28 -16 15 -2 23 -7 42 -11 42 -4 0 -14 -21 -22 -46 -19
-61 -33 -61 -37 0 l-3 49 -15 -28 c-8 -15 -14 -38 -14 -51 0 -14 -7 -36 -16
-49 -10 -16 -14 -34 -10 -50 7 -29 23 -24 36 11 7 16 17 24 34 24 14 0 30 10
40 25 9 14 23 25 31 25 19 0 30 -21 15 -30 -19 -12 -7 -45 17 -48 12 -2 24
-10 27 -19 8 -21 -1 -30 -15 -16 -14 14 -39 6 -39 -13 0 -7 -6 -17 -13 -21 -8
-4 -22 -31 -32 -59 -14 -39 -16 -60 -9 -89 11 -46 42 -61 110 -50 50 7 54 19
29 79 -9 21 -15 62 -14 100 2 66 -15 136 -33 136 -6 0 -6 6 2 15 7 9 29 15 50
15 21 0 40 4 42 9 3 10 21 14 60 12 l27 -1 -15 -51 c-10 -32 -12 -55 -6 -61 6
-6 12 6 16 30 4 26 12 41 23 45 10 2 27 8 38 12 13 5 9 -2 -11 -19 -47 -38
-49 -61 -8 -87 36 -22 45 -32 19 -23 -8 4 -15 1 -15 -6 0 -6 9 -14 21 -17 13
-4 18 -11 15 -20 -4 -8 5 -28 19 -45 14 -16 25 -38 25 -48 0 -10 4 -21 9 -24
5 -3 14 -20 20 -37 18 -51 -15 -16 -45 48 -22 47 -28 52 -45 43 -10 -6 -19
-20 -19 -31 0 -18 4 -20 25 -15 22 6 25 3 25 -19 0 -14 7 -37 16 -50 21 -32 9
-52 -18 -28 -15 13 -18 25 -13 51 5 29 4 33 -12 30 -13 -2 -20 -15 -24 -46 -6
-49 -3 -57 32 -65 15 -4 29 -16 32 -27 3 -13 13 -20 31 -20 14 0 34 -10 46
-22 l20 -22 -30 -12 c-22 -9 -28 -18 -23 -30 5 -13 2 -15 -15 -9 -15 4 -22 2
-23 -7 -1 -7 -2 -32 -3 -54 -1 -23 -9 -49 -19 -58 -19 -19 -22 -42 -8 -51 13
-8 102 -26 126 -26 16 0 17 -2 5 -9 -12 -7 -10 -11 10 -19 14 -5 20 -10 14
-10 -6 -1 -9 -12 -6 -26 4 -23 9 -25 53 -25 27 0 49 -4 49 -10 0 -5 -11 -10
-25 -10 -24 0 -113 -21 -150 -36 -16 -6 -10 -10 30 -20 l50 -12 -42 -1 c-23 0
-44 -5 -48 -11 -3 -5 -12 -7 -20 -3 -20 7 -42 -12 -50 -44 -3 -14 -17 -35 -31
-45 -13 -11 -24 -26 -24 -34 0 -8 -7 -14 -16 -14 -13 0 -15 -7 -10 -30 4 -22
2 -30 -9 -30 -8 0 -15 -4 -15 -10 0 -13 27 -13 35 0 4 6 11 8 16 4 6 -3 3 -12
-8 -20 -12 -9 -13 -13 -5 -14 7 0 10 -5 7 -10 -4 -6 -11 -7 -17 -4 -6 4 -9 1
-6 -7 3 -8 1 -22 -4 -32 -13 -25 -6 -30 24 -18 25 9 25 9 20 -35 -4 -40 -2
-46 16 -51 l21 -5 -22 -18 c-20 -17 -20 -19 -4 -25 23 -10 22 -28 -2 -20 -27
8 -35 -21 -13 -50 10 -15 27 -24 44 -25 25 0 27 -2 18 -26 -14 -36 -13 -37 20
-31 17 4 30 2 30 -3 0 -6 -5 -9 -12 -8 -6 2 -14 -11 -18 -29 -9 -38 16 -67 67
-78 18 -3 35 -10 38 -15 3 -4 -4 -6 -15 -3 -26 7 -26 -12 0 -40 11 -12 19 -28
18 -37 -4 -20 34 -50 64 -51 12 0 32 -4 43 -8 19 -8 19 -8 -3 -20 -12 -6 -22
-19 -22 -27 0 -15 23 -44 35 -44 4 0 13 -6 20 -14 13 -13 118 -23 329 -31 53
-2 173 -15 284 -31 19 -3 32 -11 32 -19 0 -11 14 -15 53 -16 44 -1 48 -2 22
-9 -24 -6 -26 -8 -7 -9 32 -2 28 -14 -22 -67 l-45 -47 -78 5 c-58 4 -70 3 -44
-4 46 -13 35 -18 -19 -8 -90 16 -176 21 -160 10 11 -8 4 -10 -30 -9 -62 1 -67
0 -50 -11 20 -13 4 -13 -40 0 -19 6 -84 18 -145 26 -191 28 -186 28 -180 11 5
-13 46 -30 100 -41 11 -2 3 -4 -17 -5 -20 0 -39 3 -43 8 -3 6 -27 13 -53 16
-26 4 -72 13 -103 21 -73 18 -76 18 -54 -6 16 -18 16 -20 1 -26 -22 -9 -20
-34 3 -34 22 0 37 -16 20 -22 -21 -7 12 -55 57 -83 24 -15 44 -32 44 -37 0 -5
5 -6 10 -3 6 3 10 2 10 -4 0 -22 -22 -21 -40 1 -24 28 -26 17 -4 -17 10 -15
12 -25 5 -25 -6 0 -11 4 -11 10 0 11 -26 44 -52 69 -10 8 -18 21 -18 28 0 7
-10 29 -22 48 -17 26 -30 35 -53 36 l-30 1 28 11 c25 10 37 26 20 28 -5 0 -21
2 -37 4 -29 4 -96 -18 -96 -31 0 -3 10 -4 23 0 17 4 33 -3 58 -24 28 -24 30
-28 12 -23 -13 3 -23 10 -23 17 0 6 -4 5 -9 -3 -8 -12 -14 -13 -35 -3 -14 6
-32 9 -40 6 -8 -3 -39 1 -69 10 -43 12 -61 13 -87 5 -23 -8 -38 -9 -56 -1 -25
12 -54 7 -54 -9 0 -5 -6 -9 -14 -9 -9 0 -16 -17 -21 -47 l-8 -48 -11 32 c-6
17 -14 35 -18 39 -5 4 -8 19 -8 33 0 44 -14 57 -45 43 -14 -7 -38 -12 -53 -12
-15 -1 -44 -7 -65 -14 -37 -13 -38 -13 -59 17 -19 27 -20 30 -4 24 10 -4 22
-7 28 -7 6 0 8 -6 5 -14 -4 -10 0 -12 14 -9 11 3 16 10 12 17 -4 6 0 6 9 -2 8
-7 23 -10 32 -6 13 5 9 15 -25 55 -43 51 -69 60 -104 36 -24 -18 -3 -32 25
-17 37 20 40 6 5 -18 -30 -19 -35 -20 -35 -6 0 13 -8 15 -42 12 -24 -2 -54 2
-68 9 -13 7 -26 10 -28 8 -9 -9 10 -24 38 -30 16 -4 32 -10 35 -15 8 -13 -78
-4 -106 10 -23 13 -23 13 -4 21 35 14 2 9 -70 -10 -39 -10 -80 -23 -93 -30
-16 -9 -32 -9 -61 -1 -21 5 -47 7 -57 4 -16 -5 -16 -4 -4 5 8 6 33 9 55 5 24
-3 56 1 80 9 39 15 37 15 -55 10 -52 -3 -96 -10 -98 -14 -2 -5 -17 -9 -33 -9
-16 0 -38 -9 -49 -20 -16 -16 -20 -17 -20 -5 0 26 -18 16 -29 -15 -11 -33 -31
-39 -52 -14 -24 29 -55 34 -101 16 -24 -9 -49 -22 -56 -29 -7 -7 -17 -13 -22
-13 -5 0 -22 -14 -38 -31 -25 -27 -38 -32 -105 -39 -82 -10 -129 -27 -108 -40
7 -4 56 -5 109 -3 95 4 96 4 68 -13 -25 -14 -35 -15 -63 -5 -24 9 -38 9 -54 1
-11 -7 -32 -9 -45 -6 -13 4 -33 2 -44 -4 -11 -6 -21 -6 -25 -1 -3 5 3 12 12
14 14 4 13 5 -4 6 -12 0 -29 -6 -37 -15 -15 -14 -19 -13 -46 6 -37 26 -37 29
-4 22 19 -3 25 -1 20 7 -4 6 -16 11 -26 11 -10 0 -21 4 -25 9 -3 5 -18 12 -34
16 -31 7 -52 35 -23 31 9 -2 31 3 48 10 17 7 34 11 37 8 3 -3 8 -1 12 5 3 6 0
11 -7 12 -7 1 -2 4 12 8 16 5 24 13 22 24 -2 11 4 17 18 17 11 0 20 4 20 10 0
5 14 17 30 25 17 9 28 20 25 25 -3 5 20 12 50 15 30 4 55 11 55 16 0 5 7 9 16
9 8 0 12 -4 9 -10 -3 -5 1 -10 9 -10 9 0 16 5 16 11 0 19 125 6 148 -15 24
-21 118 -20 172 3 19 8 49 16 65 17 17 0 41 4 54 9 17 5 21 4 16 -4 -4 -8 1
-10 17 -7 52 11 82 15 71 10 -18 -8 -16 -24 2 -24 8 0 15 4 15 9 0 5 12 11 27
13 14 2 28 8 30 15 6 18 -51 25 -191 23 -170 -4 -171 -3 -157 14 12 14 2 27
-29 39 -12 4 -11 6 3 6 36 2 15 21 -23 21 -33 0 -40 -3 -40 -20 0 -11 -6 -20
-14 -20 -7 0 -16 -8 -18 -18 -8 -31 -199 -40 -565 -26 -106 4 -193 10 -193 14
0 8 92 30 126 30 13 0 52 12 87 26 40 17 93 29 151 34 93 9 106 16 106 60 0
39 -15 57 -34 41 -13 -11 -16 -9 -22 15 -7 25 -8 26 -20 9 -8 -10 -17 -16 -20
-12 -7 7 8 94 22 132 7 19 7 19 -13 3 -11 -10 -24 -18 -30 -18 -6 0 -13 -8
-16 -17 -3 -10 -13 -36 -21 -58 l-15 -40 -1 35 c0 51 16 101 49 150 16 24 27
49 24 56 -2 6 6 20 19 30 16 13 23 28 21 47 -1 19 3 27 15 27 9 0 24 4 32 10
12 8 12 11 -2 27 -15 18 -14 42 4 54 6 4 -7 10 -28 14 -36 6 -38 8 -19 21 14
11 21 11 26 2 16 -26 20 2 5 33 -13 26 -14 34 -4 41 10 6 10 8 0 8 -23 0 -9
44 18 57 14 7 25 17 24 23 -1 5 -2 31 -3 58 -3 46 -3 46 -13 17 l-11 -29 -13
44 c-14 46 -11 62 9 55 7 -3 19 -1 27 5 12 8 12 14 -3 46 -13 27 -15 39 -7 44
9 6 9 13 1 28 -6 11 -11 33 -11 49 0 15 -5 35 -10 43 -7 11 -10 3 -11 -30 l-2
-45 -6 40 c-6 32 -3 45 14 65 16 19 20 32 15 55 l-7 30 -8 -33 c-5 -21 -11
-30 -17 -24 -15 15 1 52 27 62 18 7 22 14 17 37 -7 41 -20 53 -56 53 -18 0
-41 7 -52 15 -10 8 -26 15 -35 15 -16 0 -58 50 -43 50 4 0 -1 9 -11 20 -18 20
-17 20 26 20 25 0 53 -6 64 -14 11 -7 48 -15 82 -18 l61 -4 5 40 c3 32 -1 49
-19 77 -13 19 -24 42 -24 50 0 9 -11 26 -25 39 -14 13 -25 19 -25 14 0 -5 -4
-3 -9 4 -5 8 -17 12 -27 10 -18 -3 -18 -4 2 -24 15 -15 19 -29 16 -62 -4 -44
-21 -59 -23 -19 0 12 -3 16 -6 9 -4 -10 -8 -9 -19 5 -12 16 -14 14 -15 -22 -1
-28 -3 -32 -6 -15 -3 14 -9 29 -14 35 -5 5 -9 19 -9 31 0 22 -13 37 -41 47
-13 4 -16 1 -12 -16 5 -18 3 -20 -8 -9 -7 6 -31 13 -53 14 l-41 1 45 7 45 7
-32 8 c-26 6 -33 13 -33 32 0 22 2 24 15 13 9 -7 18 -11 20 -8 10 10 -8 40
-29 48 -17 7 -17 9 -4 9 11 1 15 6 12 16 -4 10 0 15 15 15 19 0 19 3 9 28 -22
50 -37 61 -75 55 -26 -4 -34 -3 -29 5 4 7 25 12 46 12 21 0 42 5 45 10 3 6 24
10 46 10 21 0 39 4 39 9 0 16 -55 32 -111 32 -38 1 -56 5 -56 14 0 9 31 12
136 9 75 -2 152 -8 171 -13 19 -5 27 -9 16 -10 -11 -1 -16 -6 -13 -15 4 -9 -1
-16 -11 -18 -11 -3 -8 -6 10 -10 15 -3 25 -1 22 3 -3 5 15 9 40 9 27 0 46 -5
46 -11 0 -7 -14 -10 -35 -7 -19 2 -35 0 -35 -4 0 -4 -11 -8 -24 -8 -34 0 -37
-9 -22 -66 10 -39 17 -50 36 -52 18 -3 20 -6 9 -13 -11 -7 -7 -15 19 -39 17
-17 32 -37 32 -44 0 -7 22 -23 50 -36 30 -14 50 -30 50 -40 0 -9 5 -21 11 -27
6 -6 13 -35 14 -63 2 -29 8 -57 13 -62 6 -6 39 -11 74 -12 72 -2 140 -28 154
-60 7 -15 21 -22 54 -26 25 -3 54 -11 65 -17 12 -6 41 -14 65 -18 52 -8 88
-24 55 -24 -11 0 -59 -1 -106 -2 -113 -1 -126 -11 -42 -34 95 -25 101 -29 101
-69 0 -18 5 -43 12 -55 12 -24 56 -45 76 -37 8 3 16 1 19 -5 4 -5 -1 -12 -9
-15 -9 -3 -16 -12 -16 -20 0 -17 5 -17 29 -3 21 14 57 7 86 -15 19 -14 18 -15
-13 -6 -29 8 -32 7 -27 -9 3 -11 -2 -24 -11 -32 -15 -12 -16 -11 -10 8 7 21 5
22 -23 12 -35 -12 -41 -38 -11 -46 26 -7 30 -73 4 -73 -8 0 -12 5 -9 10 3 6
-2 10 -12 10 -15 0 -18 -7 -18 -33 1 -18 5 -39 9 -45 4 -7 2 -27 -4 -45 -8
-21 -9 -44 -3 -67 9 -33 12 -35 61 -41 29 -4 64 -10 78 -13 l27 -7 -9 63 c-11
77 -7 232 6 236 13 5 13 69 0 77 -5 3 -10 17 -10 31 0 21 4 24 20 19 24 -8 26
7 5 29 -9 8 -22 34 -31 58 -8 23 -20 45 -26 49 -6 4 -12 19 -14 35 -2 15 -7
31 -12 36 -4 4 -51 16 -103 25 -131 23 -133 28 -9 36 8 0 29 -3 46 -7 23 -5
36 -3 48 10 15 14 35 16 141 12 105 -3 125 -2 131 12 4 8 6 19 5 24 -1 5 5 6
14 2 12 -4 10 2 -7 23 -17 21 -26 26 -36 18 -10 -8 -16 -7 -23 4 -8 12 -10 12
-18 0 -7 -11 -11 -10 -19 5 -8 15 -13 16 -26 5 -9 -7 -16 -11 -16 -7 0 4 -11
-1 -25 -10 -14 -9 -25 -23 -25 -30 0 -8 -4 -14 -8 -14 -5 0 -14 32 -21 70 -9
48 -17 70 -27 70 -23 0 -16 30 9 39 12 5 30 18 40 29 16 17 17 26 8 59 -17 59
-14 94 5 86 14 -5 16 -1 10 30 -6 33 -4 38 31 61 22 15 52 26 71 26 26 0 33 4
29 14 -3 8 -9 32 -13 53 -4 21 -13 52 -20 69 -18 42 -2 102 29 109 26 6 115 0
139 -10 10 -4 35 1 60 13 55 26 114 37 122 23 4 -6 18 -11 32 -11 14 0 22 4
19 10 -7 11 53 2 70 -10 6 -4 28 3 50 16 31 18 50 22 85 17 25 -2 50 -9 57
-15z m323 3 c0 -4 -35 -29 -77 -55 -66 -39 -72 -42 -43 -15 38 34 101 77 113
78 4 1 7 -3 7 -8z m1089 -47 c-9 -11 -8 -14 2 -14 8 0 1 -7 -16 -16 -16 -8
-38 -22 -47 -31 -9 -8 -21 -12 -27 -8 -7 3 -8 0 -5 -9 3 -9 2 -16 -2 -17 -5 0
-20 -2 -34 -5 -24 -4 -24 -3 8 26 18 17 38 28 44 24 6 -4 8 -3 4 4 -3 5 10 20
29 32 19 12 35 26 35 31 0 6 5 7 10 4 8 -5 7 -11 -1 -21z m61 23 c0 -2 -10
-12 -22 -23 l-23 -19 19 23 c18 21 26 27 26 19z m-3405 -20 c11 -1 29 -8 40
-14 31 -19 -1 -15 -65 8 -30 11 -41 17 -25 14 17 -4 39 -7 50 -8z m2420 3 c4
-6 -6 -10 -22 -10 -15 0 -46 -3 -68 -7 -37 -6 -39 -5 -26 10 15 19 105 24 116
7z m515 -18 c-36 -17 -73 -26 -107 -27 l-52 -1 21 23 c21 23 45 32 33 13 -6
-10 33 -5 85 11 14 4 36 7 50 7 19 0 12 -6 -30 -26z m-3025 8 c3 -5 1 -10 -4
-10 -6 0 -11 5 -11 10 0 6 2 10 4 10 3 0 8 -4 11 -10z m2780 -18 c-3 -3 -11 0
-18 7 -9 10 -8 11 6 5 10 -3 15 -9 12 -12z m-2451 -8 c5 -14 1 -16 -31 -10
-21 3 -44 6 -50 6 -7 0 -13 5 -13 10 0 6 20 10 44 10 31 0 46 -5 50 -16z m66
6 c0 -5 -4 -10 -9 -10 -6 0 -13 5 -16 10 -3 6 1 10 9 10 9 0 16 -4 16 -10z
m125 -22 c4 -4 -10 -10 -30 -14 -26 -5 -33 -9 -23 -15 18 -12 41 -11 33 1 -3
6 1 10 10 10 9 0 13 -5 10 -10 -3 -6 2 -13 12 -17 16 -6 15 -8 -7 -15 -17 -5
-11 -6 20 -4 25 3 61 1 80 -4 21 -5 26 -8 14 -9 -11 -1 -29 -10 -38 -20 -14
-15 -29 -19 -74 -17 -31 2 -75 8 -97 14 -22 6 -58 16 -80 21 l-40 11 50 -5
c28 -2 61 -8 74 -11 17 -5 22 -4 17 4 -4 7 -18 12 -31 12 -13 0 -35 4 -49 10
-16 6 -56 5 -114 -2 -63 -8 -102 -8 -131 -1 -23 6 -41 7 -41 3 0 -13 -61 -21
-78 -10 -14 8 -13 10 8 11 14 1 29 1 34 0 12 -3 59 21 68 34 5 6 66 9 161 7
121 -3 155 -1 159 10 6 13 71 18 83 6z m181 -3 c-11 -8 -25 -15 -30 -15 -6 0
-2 7 8 15 11 8 25 15 30 15 6 0 2 -7 -8 -15z m609 -7 c14 -6 25 -18 25 -26 0
-13 -3 -13 -18 1 -21 19 -45 21 -70 8 -27 -13 -92 -21 -92 -10 0 5 12 10 28
10 27 2 27 2 2 7 -23 4 -24 5 -5 13 30 12 101 10 130 -3z m1545 -8 c19 -11 29
-19 23 -20 -7 0 -13 -7 -13 -16 0 -10 -6 -14 -15 -10 -39 15 -118 18 -160 6
-49 -14 -65 -28 -45 -40 17 -11 -63 -24 -91 -15 -14 5 -25 2 -30 -6 -7 -11 -9
-11 -9 2 0 10 14 22 33 29 93 35 114 43 139 56 14 8 39 14 55 15 24 0 26 1 8
9 -15 7 -9 9 25 9 26 0 60 -8 80 -19z m-2910 -8 c19 -4 34 -11 33 -15 -2 -4
-3 -11 -3 -17 0 -5 -5 -10 -11 -10 -5 0 -8 4 -4 9 3 6 -11 13 -32 17 -21 4
-43 11 -50 16 -7 5 -17 7 -23 3 -5 -3 -10 -1 -10 5 0 10 32 8 100 -8z m3018
-36 c-20 -30 -24 -32 -37 -18 -10 10 -12 17 -5 19 6 2 20 10 30 18 31 24 35
17 12 -19z m420 8 c0 -16 -5 -23 -13 -20 -7 2 -18 -1 -24 -7 -6 -6 -14 -8 -17
-4 -5 4 41 54 52 57 1 0 2 -12 2 -26z m-924 -2 c10 -17 -161 -66 -191 -54 -34
12 11 38 81 47 21 2 41 7 44 10 8 8 60 6 66 -3z m743 -28 c-3 -3 -12 -4 -19
-1 -8 3 -5 6 6 6 11 1 17 -2 13 -5z m-3197 -34 c12 -8 12 -10 -5 -9 -11 0 -29
4 -40 9 -18 8 -18 9 5 9 14 0 32 -4 40 -9z m2973 -29 c-2 -6 3 -11 11 -11 8 0
18 -9 21 -20 3 -11 12 -20 18 -20 12 0 -12 -20 -25 -20 -9 0 -48 64 -48 80 0
6 6 10 13 7 6 -2 11 -10 10 -16z m-2986 3 c-3 -3 -12 -4 -19 -1 -8 3 -5 6 6 6
11 1 17 -2 13 -5z m673 -15 c10 -5 -13 -9 -62 -9 -43 0 -78 4 -78 9 0 21 105
21 140 0z m-120 -23 c0 -11 -19 -15 -25 -6 -3 5 1 10 9 10 9 0 16 -2 16 -4z
m-515 -16 c8 -13 -25 -13 -45 0 -12 8 -9 10 12 10 15 0 30 -4 33 -10z m2543
-12 c3 -14 -3 -18 -22 -18 -19 0 -26 -5 -26 -20 0 -24 -42 -37 -73 -22 -21 10
-21 11 7 11 l29 1 -22 24 -23 25 32 8 c54 14 94 10 98 -9z m561 1 c-16 -10
-23 -4 -14 10 3 6 11 8 17 5 6 -4 5 -9 -3 -15z m-49 -19 c0 -5 -7 -10 -15 -10
-8 0 -15 5 -15 10 0 6 7 10 15 10 8 0 15 -4 15 -10z m-3057 -7 c-7 -2 -19 -2
-25 0 -7 3 -2 5 12 5 14 0 19 -2 13 -5z m740 -55 c-26 -49 -28 -51 -31 -26 -2
21 4 34 25 53 15 13 29 25 31 25 1 0 -10 -24 -25 -52z m58 5 c-32 -81 -44
-130 -36 -143 5 -8 3 -11 -6 -8 -42 14 2 198 47 198 10 0 9 -11 -5 -47z m-724
11 c-3 -3 -12 -4 -19 -1 -8 3 -5 6 6 6 11 1 17 -2 13 -5z m2476 -25 l42 -1
-38 -12 c-21 -6 -35 -15 -31 -19 4 -4 -5 -7 -19 -7 -15 0 -27 5 -27 11 0 5 -4
8 -8 5 -5 -3 -38 -1 -73 4 l-64 9 68 -3 c53 -3 67 -1 67 11 0 8 4 12 9 8 5 -3
13 0 17 7 6 9 9 9 12 0 2 -7 22 -12 45 -13z m74 5 c-3 -3 -12 -4 -19 -1 -8 3
-5 6 6 6 11 1 17 -2 13 -5z m-320 -42 c4 -31 -14 -28 -20 3 -2 15 0 24 6 22 6
-2 12 -13 14 -25z m143 -12 c-8 -5 -19 -10 -25 -10 -5 0 -3 5 5 10 8 5 20 10
25 10 6 0 3 -5 -5 -10z m403 -7 c9 -8 -24 -32 -45 -33 -10 0 -18 -6 -18 -14 0
-8 -16 -15 -41 -19 -25 -3 -52 -16 -68 -31 -19 -18 -38 -26 -62 -26 -25 0 -30
3 -19 10 13 8 13 10 1 10 -20 0 -2 17 24 23 13 3 8 5 -13 6 -36 1 -102 28
-102 41 0 12 171 0 198 -13 19 -9 31 -7 68 12 24 13 44 28 44 32 0 10 24 12
33 2z m817 -8 c0 -1 -7 -8 -15 -15 -13 -11 -14 -10 -9 5 6 14 4 16 -6 10 -8
-5 -11 -4 -6 3 5 9 36 7 36 -3z m-49 -48 c-10 -9 -11 -8 -5 6 3 10 9 15 12 12
3 -3 0 -11 -7 -18z m64 5 c-37 -31 -84 -61 -80 -50 6 15 65 58 79 58 6 0 6 -3
1 -8z m-3330 -53 c13 -24 13 -29 2 -29 -13 0 -37 40 -37 61 0 17 19 0 35 -32z
m2108 23 c-10 -11 -22 -17 -26 -14 -5 2 0 10 10 18 26 20 36 17 16 -4z m-2950
1 c-7 -2 -21 -2 -30 0 -10 3 -4 5 12 5 17 0 24 -2 18 -5z m81 0 c4 -5 35 -9
69 -10 111 -2 248 -18 255 -29 4 -6 30 -15 57 -20 41 -7 19 -10 -125 -14 -96
-3 -179 -2 -184 3 -6 4 17 8 50 8 124 3 185 7 190 11 2 3 -27 5 -65 6 -38 0
-79 3 -91 7 -14 4 -20 3 -16 -3 3 -6 -11 -6 -41 -1 -30 6 -51 5 -57 -1 -5 -5
-17 -10 -25 -9 -11 0 -12 2 -3 6 27 11 0 20 -35 12 -51 -12 -103 -11 -103 1 0
6 12 10 28 10 44 0 76 11 60 21 -9 6 -7 9 8 9 11 0 24 -3 28 -7z m543 -9 c-3
-3 -12 -4 -19 -1 -8 3 -5 6 6 6 11 1 17 -2 13 -5z m2273 -15 c-12 -21 -31 -22
-37 -2 -4 10 11 18 40 22 4 0 3 -8 -3 -20z m-2233 -27 c1 -32 0 -33 -7 -12
-11 33 -12 50 -2 50 4 0 8 -17 9 -38z m397 -2 c17 -59 15 -61 -13 -17 -17 26
-31 50 -31 53 0 13 39 -19 44 -36z m-948 -13 c13 -12 1 -14 -67 -8 -64 6 -67
5 -64 -16 1 -16 -3 -21 -16 -20 -22 1 -25 13 -6 21 10 5 10 7 0 12 -7 3 -13
10 -13 16 0 12 154 7 166 -5z m481 7 c-3 -3 -12 -4 -19 -1 -8 3 -5 6 6 6 11 1
17 -2 13 -5z m642 -11 c0 -10 -4 -27 -9 -38 -8 -19 -9 -19 -9 3 -1 31 -17 27
-30 -8 -5 -16 -15 -30 -20 -30 -13 0 -14 14 -5 59 6 27 10 31 40 31 26 0 34
-4 33 -17z m-609 -3 c-8 -5 -26 -9 -40 -9 -23 1 -23 2 5 9 43 11 52 11 35 0z
m-605 -20 c13 -6 15 -9 5 -9 -8 0 -22 4 -30 9 -18 12 -2 12 25 0z m402 -38
l-29 -4 33 -24 c18 -13 28 -24 21 -24 -6 0 -9 -7 -6 -15 4 -8 1 -15 -6 -15
-28 0 13 -29 63 -46 61 -20 87 -38 32 -23 -20 6 -49 7 -64 3 -14 -4 -30 -8
-36 -9 -28 -5 -27 -8 5 -15 l35 -7 -37 -2 c-20 0 -40 3 -43 9 -3 5 -20 3 -40
-7 -34 -16 -48 -36 -22 -30 6 1 12 -5 12 -13 0 -8 -9 -15 -20 -15 -20 0 -32
-27 -34 -77 -1 -25 3 -28 32 -29 l32 -2 -35 -7 c-19 -4 -29 -8 -22 -9 19 -2
14 -29 -9 -41 -11 -7 -23 -9 -26 -6 -14 14 -33 -20 -35 -63 -1 -40 -2 -38 -7
19 l-6 64 -18 -27 c-9 -15 -24 -61 -32 -103 -19 -101 -29 -108 -20 -14 6 67 5
73 -8 56 -17 -23 -47 -30 -47 -12 0 7 -11 19 -25 26 -14 7 -25 18 -25 23 0 6
8 3 18 -6 21 -19 32 -13 32 15 0 10 6 28 13 39 10 17 10 23 0 26 -20 7 -15 23
5 23 18 0 48 47 37 58 -3 3 18 30 47 59 47 47 50 60 14 54 -5 -1 -16 1 -25 5
-13 5 -11 8 9 16 19 7 21 11 11 17 -10 6 -5 11 18 16 17 3 31 10 31 15 0 5 15
4 32 -1 55 -15 67 -12 64 17 -4 36 -46 62 -46 29 0 -12 -4 -11 -20 5 -21 21
-107 30 -95 10 3 -5 12 -10 20 -10 7 0 15 -7 19 -15 4 -10 -1 -15 -14 -15 -11
0 -20 4 -20 9 0 5 -14 12 -31 16 -24 5 -38 2 -60 -14 -37 -28 -38 -12 -1 21
24 21 42 26 117 32 49 4 96 11 104 16 8 4 42 8 75 7 34 -1 48 -3 33 -5z m72
-6 c9 -11 21 -12 53 -5 22 6 46 8 52 5 6 -2 3 -5 -6 -5 -28 -1 -21 -19 10 -25
15 -2 -11 -3 -57 -1 -46 2 -88 8 -94 14 -8 8 -6 11 9 11 16 0 17 2 4 10 -13 8
-13 10 1 10 9 0 22 -6 28 -14z m-505 -11 c-4 -10 -10 -12 -18 -7 -6 5 -18 12
-26 15 -8 3 -1 6 17 6 25 1 31 -2 27 -14z m3912 0 c-3 -8 -1 -15 5 -15 6 0 8
-4 5 -9 -3 -4 -17 -7 -31 -6 -27 3 -30 -2 -14 -25 8 -11 12 -12 16 -2 2 6 9 9
14 6 6 -3 21 2 35 11 13 9 30 12 37 8 7 -4 21 -9 32 -10 11 -2 24 -8 29 -13
14 -14 39 -13 30 2 -4 7 -3 8 4 4 17 -10 3 -36 -20 -36 -10 0 -16 4 -13 10 3
5 -7 12 -22 16 -15 3 -35 8 -44 10 -9 3 -19 -3 -23 -11 -3 -9 -10 -14 -15 -11
-5 4 -13 -6 -18 -20 -8 -25 -10 -26 -26 -10 -16 17 -17 16 -23 -1 -13 -41 -44
-103 -52 -101 -4 2 -25 -14 -46 -34 -46 -44 -41 -48 17 -13 42 26 42 26 13 2
-15 -14 -24 -27 -20 -29 5 -3 2 -3 -6 -1 -8 2 -22 -6 -31 -18 l-17 -22 -7 22
c-5 17 -1 29 16 47 18 19 19 23 6 18 -13 -5 -16 -2 -11 10 3 9 1 16 -5 16 -13
0 9 29 67 88 51 52 55 75 7 38 -19 -15 -39 -25 -44 -22 -4 3 -18 -4 -29 -15
l-22 -20 0 21 c0 11 6 20 14 20 7 0 20 7 27 16 12 15 11 16 -9 10 -30 -10 -28
-1 7 23 28 20 67 19 55 -1 -3 -5 8 -3 24 6 17 9 34 21 37 27 6 8 38 26 54 28
2 1 1 -6 -3 -14z m-3869 -1 c-3 -3 -12 -4 -19 -1 -8 3 -5 6 6 6 11 1 17 -2 13
-5z m-73 -20 c5 -14 4 -15 -9 -4 -17 14 -19 20 -6 20 5 0 12 -7 15 -16z m120
1 c-10 -8 -25 -15 -32 -15 -7 0 -15 -6 -18 -14 -3 -8 -19 -18 -35 -21 -16 -4
-29 -12 -29 -18 0 -7 -7 -3 -15 7 -8 11 -14 27 -14 35 1 13 2 12 6 -1 3 -12
14 -18 31 -18 21 0 23 3 12 10 -11 7 -9 11 13 19 16 6 33 11 38 11 5 0 9 5 9
10 0 6 12 10 27 10 26 0 26 -1 7 -15z m2796 -15 c0 -5 -4 -10 -9 -10 -6 0 -13
5 -16 10 -3 6 1 10 9 10 9 0 16 -4 16 -10z m400 -1 c-25 -5 -67 -11 -95 -13
-27 -2 -59 -7 -70 -11 -16 -6 -18 -5 -8 5 16 17 73 28 153 28 65 0 65 0 20 -9z
m765 1 c8 -13 -5 -13 -25 0 -13 8 -13 10 2 10 9 0 20 -4 23 -10z m-672 -7 c-7
-2 -19 -2 -25 0 -7 3 -2 5 12 5 14 0 19 -2 13 -5z m173 -2 c-7 -11 -46 -21
-46 -12 0 13 13 21 32 21 11 0 17 -4 14 -9z m14 -16 c0 -3 -5 -11 -10 -18 -6
-7 -16 -20 -23 -29 -11 -16 -16 -16 -48 -5 l-36 12 23 18 c25 19 38 22 29 8
-3 -5 -1 -13 5 -16 6 -4 10 -3 9 2 -3 20 2 27 11 13 8 -12 10 -12 16 3 6 16
24 24 24 12z m455 -25 c-3 -5 -17 -10 -30 -10 -13 0 -29 -8 -34 -17 -9 -16
-10 -16 -11 4 0 21 8 25 68 32 7 0 10 -3 7 -9z m-3976 -22 c8 3 11 0 7 -6 -3
-6 2 -15 11 -21 17 -10 17 -10 1 -11 -10 0 -18 4 -18 9 0 5 -10 11 -22 13 -12
2 -23 9 -26 16 -3 11 0 12 14 4 11 -5 25 -7 33 -4z m638 6 c-3 -3 -12 -4 -19
-1 -8 3 -5 6 6 6 11 1 17 -2 13 -5z m3448 -22 c-6 -7 -34 11 -29 19 3 5 11 3
19 -4 7 -6 12 -13 10 -15z m-211 -17 c3 -9 0 -15 -9 -15 -16 0 -27 14 -18 24
10 10 21 7 27 -9z m-3130 -14 c3 -5 -16 -8 -42 -8 -41 0 -43 1 -17 7 43 11 53
11 59 1z m2769 -21 c28 -24 45 -30 83 -32 l49 -1 -50 -6 c-45 -6 -53 -4 -80
21 -17 16 -39 28 -48 28 -35 0 -95 -40 -151 -100 -31 -34 -59 -60 -62 -57 -3
3 11 24 31 46 21 23 33 41 27 41 -5 0 -26 -18 -46 -40 -20 -22 -36 -36 -36
-31 0 18 78 93 89 86 7 -4 10 -1 9 7 -2 7 3 12 11 10 7 -2 21 4 30 12 18 17
79 45 98 46 7 0 28 -13 46 -30z m567 21 c0 -5 -17 -12 -37 -16 -21 -3 -53 -15
-71 -26 -38 -22 -55 -25 -27 -6 10 8 15 19 11 25 -3 6 -1 14 5 18 8 4 9 3 5
-4 -9 -15 0 -15 49 3 47 17 65 18 65 6z m-170 -11 c0 -5 -5 -10 -11 -10 -5 0
-7 5 -4 10 3 6 8 10 11 10 2 0 4 -4 4 -10z m-3245 -19 l60 -7 -38 -8 c-25 -5
-53 -4 -77 3 -20 6 -51 11 -69 11 -17 0 -31 5 -31 11 0 8 15 9 48 4 26 -4 74
-10 107 -14z m3498 12 c-7 -2 -19 -2 -25 0 -7 3 -2 5 12 5 14 0 19 -2 13 -5z
m-108 -24 c-22 -10 -48 -19 -57 -19 -9 0 -20 -4 -23 -10 -3 -5 -32 -17 -63
-26 -31 -9 -66 -24 -76 -33 -11 -9 -16 -10 -12 -3 9 15 -2 15 -34 -1 -34 -18
-60 -27 -60 -22 0 10 78 43 130 55 30 7 73 20 95 30 96 44 184 69 100 29z
m-3278 -5 c-3 -3 -12 -4 -19 -1 -8 3 -5 6 6 6 11 1 17 -2 13 -5z m800 0 c-3
-3 -12 -4 -19 -1 -8 3 -5 6 6 6 11 1 17 -2 13 -5z m0 -30 c-3 -3 -12 -4 -19
-1 -8 3 -5 6 6 6 11 1 17 -2 13 -5z m2093 -18 c0 -2 -8 -10 -17 -17 -16 -13
-17 -12 -4 4 13 16 21 21 21 13z m-3340 -22 c0 -2 -9 -4 -20 -4 -11 0 -20 4
-20 9 0 5 9 7 20 4 11 -3 20 -7 20 -9z m-348 -56 c-7 -7 -12 -8 -12 -2 0 14
12 26 19 19 2 -3 -1 -11 -7 -17z m778 18 c0 -3 -4 -8 -10 -11 -5 -3 -10 -1
-10 4 0 6 5 11 10 11 6 0 10 -2 10 -4z m3060 -5 c0 -6 -11 -23 -25 -38 l-26
-28 23 37 c25 40 28 43 28 29z m-3415 -52 c17 -1 18 -2 2 -6 -11 -3 -16 -11
-13 -19 8 -21 -4 -17 -25 7 -19 23 -16 50 4 30 6 -6 20 -12 32 -12z m-416 -36
c2 -1 -4 -10 -14 -20 -17 -16 -17 -16 -11 5 4 13 3 22 -3 22 -6 0 -16 10 -22
23 -11 21 -11 21 17 -3 16 -14 31 -26 33 -27z m1578 34 c3 -3 2 -11 -2 -16 -4
-8 -11 -6 -22 4 -8 9 -23 13 -33 10 -10 -3 -22 0 -26 6 -5 9 4 11 35 6 24 -3
45 -8 48 -10z m2183 9 c0 -2 -8 -10 -17 -17 -16 -13 -17 -12 -4 4 13 16 21 21
21 13z m-3435 -16 c3 -5 -1 -10 -9 -10 -9 0 -16 5 -16 10 0 6 4 10 9 10 6 0
13 -4 16 -10z m-66 -110 c-1 -41 -2 -42 -9 -15 -4 17 -8 44 -9 60 0 23 2 26 9
15 5 -8 9 -35 9 -60z m551 8 c0 -18 -2 -20 -9 -8 -6 8 -7 18 -5 22 9 14 14 9
14 -14z m-770 -8 c0 -5 -2 -10 -4 -10 -3 0 -8 5 -11 10 -3 6 -1 10 4 10 6 0
11 -4 11 -10z m3035 0 c21 -5 4 -8 -55 -8 -59 0 -76 3 -55 8 17 4 41 8 55 8
14 0 39 -4 55 -8z m145 0 c-8 -5 -28 -9 -45 -9 -29 1 -29 1 -5 9 14 4 34 8 45
9 16 1 17 -1 5 -9z m-480 -64 c0 -2 -7 -7 -16 -10 -8 -3 -12 -2 -9 4 6 10 25
14 25 6z m519 -10 c-2 -2 -31 -6 -64 -10 -41 -4 -55 -3 -45 4 13 9 119 15 109
6z m438 -12 c-3 -3 -12 -4 -19 -1 -8 3 -5 6 6 6 11 1 17 -2 13 -5z m-109 -41
c-10 -2 -28 -2 -40 0 -13 2 -5 4 17 4 22 1 32 -1 23 -4z m-3473 -50 c4 -14 2
-23 -4 -23 -6 0 -11 6 -11 14 0 8 -3 23 -6 33 -5 12 -4 15 3 8 6 -5 14 -20 18
-32z m-46 -17 c8 -9 8 -16 2 -20 -5 -4 -12 -2 -16 4 -4 6 -11 8 -16 5 -10 -7
-12 8 -2 18 10 11 19 8 32 -7z m2786 -16 c4 -6 -7 -10 -25 -10 -18 0 -29 4
-25 10 3 6 15 10 25 10 10 0 22 -4 25 -10z m-82 -7 c-7 -2 -19 -2 -25 0 -7 3
-2 5 12 5 14 0 19 -2 13 -5z m-2662 -117 c-10 -22 -22 29 -15 67 l8 42 6 -50
c3 -27 4 -54 1 -59z m2806 78 c-3 -3 -12 -4 -19 -1 -8 3 -5 6 6 6 11 1 17 -2
13 -5z m133 -9 c16 -20 -3 -20 -45 0 l-30 13 31 1 c17 1 37 -6 44 -14z m-220
-15 c12 -8 10 -10 -10 -9 -14 0 -34 4 -45 9 -17 7 -16 9 10 9 17 0 37 -4 45
-9z m150 -7 c-19 -3 -39 -9 -44 -14 -6 -5 -17 -9 -25 -9 -10 1 -7 6 9 15 14 8
41 14 60 13 l35 -1 -35 -4z m150 -8 c11 -13 5 -15 -46 -15 -60 0 -66 15 -9 23
17 2 33 5 36 6 4 0 12 -6 19 -14z m-243 -11 c-3 -3 -12 -4 -19 -1 -8 3 -5 6 6
6 11 1 17 -2 13 -5z m453 -34 c-14 -4 -34 -8 -45 -8 -16 0 -15 2 5 8 14 4 34
8 45 8 16 0 15 -2 -5 -8z m93 3 c-7 -2 -21 -2 -30 0 -10 3 -4 5 12 5 17 0 24
-2 18 -5z m-176 -29 c-3 -3 -12 -4 -19 -1 -8 3 -5 6 6 6 11 1 17 -2 13 -5z
m279 -6 c4 -6 3 -8 -4 -4 -6 3 -41 2 -79 -3 -37 -6 -90 -13 -118 -16 -27 -3
-59 -8 -70 -12 -17 -5 -18 -4 -6 11 8 10 29 16 55 17 22 0 59 4 81 8 60 13
133 12 141 -1z m-3406 -18 c12 -8 12 -10 1 -10 -8 0 -20 -8 -27 -17 -12 -16
-13 -15 -14 10 0 28 14 34 40 17z m-50 -10 c0 -5 -4 -10 -10 -10 -5 0 -10 5
-10 10 0 6 5 10 10 10 6 0 10 -4 10 -10z m720 -24 c0 -3 -4 -8 -10 -11 -5 -3
-10 -1 -10 4 0 6 5 11 10 11 6 0 10 -2 10 -4z m-592 -178 c45 -27 40 -33 -8
-8 -47 24 -63 25 -79 6 -10 -12 -8 -17 8 -25 22 -12 68 -15 57 -3 -8 7 -13 9
-43 11 -12 1 -14 4 -6 12 12 12 83 -16 83 -32 0 -5 6 -9 14 -9 18 0 58 -49 50
-61 -3 -5 -14 -9 -25 -9 -11 0 -17 -4 -14 -10 3 -5 -1 -10 -10 -10 -9 0 -13 5
-10 10 3 6 -1 10 -9 10 -9 0 -16 -4 -16 -10 0 -5 -11 -10 -25 -10 -15 0 -25 6
-25 14 0 8 -3 16 -7 19 -5 2 -2 2 4 1 7 -2 23 0 35 5 16 6 18 10 9 16 -8 4
-17 2 -22 -6 -6 -11 -13 -9 -31 11 -13 14 -22 28 -20 32 1 5 -2 8 -8 8 -5 0
-10 7 -10 15 0 8 -4 15 -10 15 -14 0 -12 27 3 33 22 8 81 -5 115 -25z m2607 2
c3 -5 -1 -10 -9 -10 -8 0 -18 5 -21 10 -3 6 1 10 9 10 8 0 18 -4 21 -10z m-51
-32 c-4 -6 -10 -5 -15 3 -14 22 -10 33 6 19 8 -7 12 -17 9 -22z m129 -85 c-7
-2 -21 -2 -30 0 -10 3 -4 5 12 5 17 0 24 -2 18 -5z m572 -49 c11 -8 14 -14 8
-14 -7 0 -15 5 -18 10 -3 6 -17 10 -30 10 -13 0 -27 5 -30 10 -9 14 43 2 70
-16z m-418 -106 c-3 -8 -6 -5 -6 6 -1 11 2 17 5 13 3 -3 4 -12 1 -19z m-2566
-284 c9 -12 6 -12 -20 -3 -17 6 -31 15 -31 19 0 12 37 0 51 -16z m2546 -50
c-3 -3 -12 -4 -19 -1 -8 3 -5 6 6 6 11 1 17 -2 13 -5z m493 -12 c0 -5 -13 -7
-30 -4 -16 2 -30 6 -30 8 0 2 14 4 30 4 17 0 30 -4 30 -8z m-142 -9 c-10 -2
-28 -2 -40 0 -13 2 -5 4 17 4 22 1 32 -1 23 -4z m-2071 -65 c-3 -8 -6 -5 -6 6
-1 11 2 17 5 13 3 -3 4 -12 1 -19z m412 18 c-2 -2 -17 -6 -34 -10 -22 -5 -26
-4 -15 4 14 9 59 15 49 6z m864 -10 c10 -8 14 -17 8 -20 -8 -5 -41 18 -41 30
0 8 15 3 33 -10z m107 -6 c0 -5 -7 -10 -15 -10 -8 0 -15 5 -15 10 0 6 7 10 15
10 8 0 15 -4 15 -10z m-1520 -20 c0 -5 -2 -10 -4 -10 -3 0 -8 5 -11 10 -3 6
-1 10 4 10 6 0 11 -4 11 -10z m505 -4 c11 -8 25 -12 32 -9 9 4 11 0 7 -11 -8
-20 -30 -21 -38 -1 -8 21 -27 19 -66 -10 -18 -13 -54 -32 -79 -41 -76 -28 -79
-37 -27 -68 24 -14 47 -35 51 -46 4 -11 12 -17 21 -13 7 3 14 1 14 -4 0 -7 51
-38 85 -51 20 -7 -34 34 -79 60 -32 19 -44 32 -40 43 3 8 11 12 16 9 6 -4 5
-10 -3 -16 -10 -7 -9 -8 5 -4 10 4 24 2 30 -3 8 -7 34 -5 75 5 35 8 71 12 81
9 9 -3 52 4 96 15 43 10 89 17 101 14 13 -4 29 -1 36 4 7 6 44 16 81 22 38 6
77 15 87 20 10 6 22 10 28 10 18 0 12 -18 -6 -23 -10 -3 32 -3 94 0 l111 5 39
-37 c25 -24 29 -31 13 -21 -41 24 -91 28 -150 11 -30 -9 -63 -16 -74 -16 -10
0 -33 -11 -50 -24 -31 -23 -176 -88 -183 -81 -2 2 4 9 12 16 14 12 13 15 -11
31 -20 13 -33 15 -51 8 -32 -12 -76 -12 -68 1 3 6 13 10 21 10 17 0 106 41
101 46 -2 2 -22 -5 -45 -16 -22 -11 -47 -20 -54 -20 -7 1 1 7 18 14 35 15 61
45 29 32 -11 -4 -41 -14 -67 -23 -43 -14 -53 -23 -49 -45 1 -11 -43 -10 -72 1
-13 5 -39 6 -58 1 -19 -4 -25 -8 -14 -9 27 -1 67 -30 60 -42 -4 -5 4 -9 17 -9
18 0 20 -2 8 -10 -8 -5 -13 -10 -10 -11 3 0 13 -2 23 -4 9 -2 15 0 12 5 -3 5
18 13 45 19 62 13 63 13 55 1 -3 -5 2 -10 12 -11 10 0 5 -5 -12 -10 -16 -5
-38 -6 -47 -3 -10 3 -18 0 -18 -6 0 -6 5 -8 10 -5 6 3 10 1 10 -4 0 -6 -4 -11
-10 -11 -5 0 -10 -7 -10 -15 0 -14 -27 -15 -80 -1 -6 1 -10 -9 -10 -24 0 -20
77 -23 185 -6 73 12 143 16 202 13 51 -2 97 0 105 5 10 8 9 9 -4 4 -22 -7 -24
10 -2 18 23 9 36 7 29 -4 -11 -18 5 -10 33 15 15 14 49 32 77 40 71 21 83 30
58 44 -11 5 -23 8 -27 6 -3 -3 -2 0 2 6 9 10 82 -17 82 -31 0 -3 -27 -16 -60
-29 -54 -21 -77 -41 -50 -41 22 0 8 -19 -22 -30 -30 -11 -31 -13 -13 -20 17
-6 14 -9 -18 -15 -21 -4 -35 -10 -32 -14 9 -8 55 -9 55 0 0 9 31 21 38 15 9
-10 -82 -86 -102 -86 -6 0 -4 5 4 11 11 8 2 9 -34 6 -27 -3 -52 -10 -56 -16
-3 -7 -15 -9 -24 -5 -10 4 -21 2 -25 -4 -4 -7 -31 -7 -90 0 -51 7 -78 14 -69
19 8 4 31 4 51 -1 20 -4 35 -4 32 0 -2 4 -23 10 -46 14 -30 5 -48 2 -66 -9
-17 -11 -34 -14 -56 -9 -18 4 -27 9 -20 11 7 2 9 11 6 20 -3 8 0 19 8 24 9 5
-12 9 -56 9 -43 0 -77 -5 -85 -12 -12 -11 -12 -10 -3 2 9 11 7 20 -7 38 -22
26 -40 29 -40 5 -1 -17 -1 -17 -11 -1 -8 15 -71 36 -90 30 -4 0 -26 17 -50 40
-24 22 -58 47 -76 54 -18 8 -43 25 -57 39 -14 14 -31 25 -38 25 -7 0 -19 9
-26 20 -15 24 -37 25 -76 5 -25 -14 -27 -14 -16 0 16 19 1 19 -26 0 -35 -24
-37 -3 -3 28 18 16 64 42 103 57 72 28 236 57 255 45 6 -3 18 1 27 9 19 20 44
20 69 2z m-535 -26 c0 -5 -2 -10 -4 -10 -2 0 -12 -3 -20 -6 -12 -5 -15 -2 -10
10 7 17 34 22 34 6z m-65 -46 c-19 -15 -18 -15 20 -10 l40 6 -34 -11 c-19 -6
-51 -7 -70 -4 l-36 8 40 12 c54 17 64 17 40 -1z m-291 -30 c9 -8 16 -23 16
-32 0 -15 -2 -15 -10 -2 -5 8 -10 11 -10 5 0 -5 -5 -3 -10 5 -5 8 -14 16 -20
16 -27 4 -24 7 17 23 1 1 9 -6 17 -15z m2435 0 c9 -8 -55 -2 -74 6 -13 6 -5 7
25 3 25 -3 47 -7 49 -9z m-2397 -56 c-8 -8 -9 -4 -5 13 4 13 8 18 11 10 2 -7
-1 -18 -6 -23z m2038 22 c0 -5 -4 -10 -10 -10 -5 0 -10 5 -10 10 0 6 5 10 10
10 6 0 10 -4 10 -10z m-552 -12 c8 -8 15 -8 26 1 12 10 20 9 43 -3 l28 -15
-35 0 c-50 0 -90 9 -90 20 0 12 14 11 28 -3z m723 0 c41 -12 55 -30 17 -21
-19 4 -20 3 -8 -6 8 -6 26 -11 40 -11 20 0 22 2 10 10 -11 7 -11 10 -2 10 17
0 112 -43 112 -51 0 -4 -13 -12 -30 -19 -16 -7 -30 -16 -30 -21 0 -5 -7 -9
-15 -9 -8 0 -15 9 -15 20 0 15 -7 20 -24 20 -14 0 -28 5 -31 10 -3 6 -13 10
-22 10 -13 0 -13 -2 -2 -17 8 -9 28 -24 44 -35 20 -12 24 -18 13 -18 -22 0
-105 73 -100 88 2 7 -2 12 -10 12 -10 0 -9 3 2 10 22 15 -36 13 -63 -2 -21
-11 -21 -11 -2 -19 17 -6 15 -8 -10 -9 -16 -1 -24 -4 -17 -7 23 -9 12 -21 -25
-28 -21 -4 -48 -16 -60 -28 -36 -33 -36 -15 0 21 51 51 130 101 161 101 16 1
46 -4 67 -11z m-569 -28 c37 -23 53 -26 42 -8 -4 7 7 2 24 -10 36 -26 72 -69
72 -86 0 -6 -7 -3 -14 7 -15 19 -31 23 -20 5 4 -8 3 -10 -2 -5 -9 8 -10 12
-13 40 -1 9 -3 9 -9 -1 -6 -9 -13 -8 -28 7 -19 18 -68 39 -70 30 0 -2 -8 2
-17 10 -9 7 -14 17 -11 22 7 12 9 12 46 -11z m-1076 -21 c31 -19 83 -79 69
-79 -4 0 -24 17 -44 38 -21 20 -47 42 -57 49 -11 6 -15 12 -10 12 5 1 24 -8
42 -20z m-343 -17 c-23 -2 -30 -7 -26 -18 3 -8 0 -14 -6 -14 -6 0 -11 6 -11
14 0 8 -3 16 -7 19 -5 2 -3 2 4 1 7 -2 15 1 17 5 3 5 18 6 33 2 l28 -6 -32 -3z
m-73 -22 c0 -5 -4 -10 -10 -10 -5 0 -10 5 -10 10 0 6 5 10 10 10 6 0 10 -4 10
-10z m2070 -36 c25 -12 25 -13 -10 -12 -19 1 -49 -5 -66 -12 -18 -8 -42 -10
-59 -6 l-28 7 34 23 c37 26 80 26 129 0z m-1935 -7 c17 0 24 -2 17 -4 -16 -6
-5 -23 14 -23 9 0 12 5 8 12 -4 7 -3 8 4 4 7 -4 12 0 12 10 0 10 2 15 5 12 3
-3 2 -19 -1 -36 -6 -28 -10 -32 -40 -32 -37 0 -84 18 -84 32 0 5 10 6 21 3 15
-5 19 -4 14 5 -4 7 -19 10 -36 6 -16 -3 -29 -1 -29 4 0 11 31 19 50 12 8 -3
29 -5 45 -5z m1557 -47 c21 -14 38 -29 38 -33 0 -4 -20 6 -45 23 -25 17 -45
33 -45 36 0 8 9 3 52 -26z m-707 10 c4 -6 -5 -10 -20 -10 -15 0 -24 4 -20 10
3 6 12 10 20 10 8 0 17 -4 20 -10z m945 1 c0 -6 -4 -12 -8 -15 -5 -3 -9 1 -9
9 0 8 4 15 9 15 4 0 8 -4 8 -9z m-694 -156 c-11 -8 -25 -15 -30 -15 -6 1 0 7
14 15 32 19 40 18 16 0z m24 -20 c-7 -9 -15 -13 -17 -11 -7 7 7 26 19 26 6 0
6 -6 -2 -15z"/>
<path d="M3282 5259 c-12 -19 -17 -47 -6 -36 4 3 15 2 25 -4 16 -8 19 -6 19
11 0 12 -4 18 -10 15 -5 -3 -7 0 -4 8 8 23 -11 28 -24 6z"/>
<path d="M4200 4970 c0 -5 7 -10 16 -10 8 0 12 5 9 10 -3 6 -10 10 -16 10 -5
0 -9 -4 -9 -10z"/>
<path d="M2867 4799 c7 -7 15 -10 18 -7 3 3 -2 9 -12 12 -14 6 -15 5 -6 -5z"/>
<path d="M3330 4649 c0 -5 5 -7 10 -4 6 3 10 8 10 11 0 2 -4 4 -10 4 -5 0 -10
-5 -10 -11z"/>
<path d="M3820 4226 c0 -2 9 -6 20 -9 11 -3 20 -1 20 4 0 5 -9 9 -20 9 -11 0
-20 -2 -20 -4z"/>
<path d="M2992 4013 c-15 -28 -15 -33 2 -33 20 0 25 11 16 35 -7 19 -7 19 -18
-2z"/>
<path d="M1834 3858 c-4 -7 -3 -8 4 -4 7 4 12 2 12 -3 0 -6 5 -11 10 -11 15 0
12 17 -5 23 -8 4 -17 1 -21 -5z"/>
<path d="M3351 3824 c0 -11 3 -14 6 -6 3 7 2 16 -1 19 -3 4 -6 -2 -5 -13z"/>
<path d="M1801 3754 c0 -11 3 -14 6 -6 3 7 2 16 -1 19 -3 4 -6 -2 -5 -13z"/>
<path d="M3691 3560 c0 -46 28 -80 68 -80 36 0 38 4 11 37 -11 14 -20 22 -20
17 0 -5 -5 -2 -10 6 -9 13 -10 13 -10 0 -1 -8 -9 1 -20 20 l-19 35 0 -35z"/>
<path d="M2127 3413 c-6 -32 -1 -43 19 -43 14 0 19 26 8 54 -9 24 -21 19 -27
-11z"/>
<path d="M2370 3330 c0 -5 5 -10 11 -10 5 0 7 5 4 10 -3 6 -8 10 -11 10 -2 0
-4 -4 -4 -10z"/>
<path d="M2350 3285 c0 -2 10 -9 21 -16 27 -14 129 -21 129 -8 0 5 -18 9 -39
9 -22 0 -43 5 -46 10 -6 10 -65 15 -65 5z"/>
<path d="M2648 3273 c7 -3 16 -2 19 1 4 3 -2 6 -13 5 -11 0 -14 -3 -6 -6z"/>
<path d="M2994 3219 c2 -9 0 -22 -5 -30 -7 -11 -9 -10 -9 5 0 11 -3 17 -6 13
-4 -3 -3 -14 1 -24 4 -10 7 -31 6 -47 -2 -18 1 -26 8 -22 6 4 11 2 11 -4 0 -6
10 -15 23 -20 12 -5 16 -9 10 -9 -7 -1 -13 -7 -13 -15 0 -8 -14 -20 -30 -28
-17 -7 -28 -18 -26 -25 3 -6 0 -14 -7 -17 -7 -2 5 -5 26 -5 43 -1 107 -25 107
-40 0 -6 -5 -11 -11 -11 -5 0 -8 4 -5 9 4 5 0 11 -6 14 -19 6 -48 -4 -48 -16
0 -6 3 -8 6 -4 3 3 21 -2 39 -12 21 -11 46 -16 65 -13 30 4 32 7 26 35 -8 38
-15 45 -26 27 -6 -10 -9 -2 -9 25 -2 80 -14 119 -41 125 -14 3 -34 20 -45 37
-39 60 -46 69 -41 52z m106 -124 c0 -14 -2 -25 -4 -25 -2 0 -6 11 -8 25 -3 14
-1 25 3 25 5 0 9 -11 9 -25z m-30 -11 c0 -8 -4 -12 -10 -9 -5 3 -10 10 -10 16
0 5 5 9 10 9 6 0 10 -7 10 -16z"/>
<path d="M2392 3158 c5 -23 38 -42 51 -29 13 13 2 26 -31 36 -16 5 -22 3 -20
-7z"/>
<path d="M3406 3140 c-9 -25 0 -55 21 -65 11 -6 27 -18 37 -28 29 -29 36 -19
18 28 -17 46 -32 59 -32 28 -1 -11 -8 -5 -20 17 -13 25 -20 31 -24 20z"/>
<path d="M2327 3123 c10 -27 43 -45 43 -24 0 12 -29 41 -40 41 -5 0 -6 -8 -3
-17z"/>
<path d="M3903 3098 c3 -9 1 -20 -5 -26 -16 -16 25 -33 61 -26 34 7 38 15 16
34 -12 10 -15 9 -15 -6 0 -14 -2 -16 -9 -6 -4 8 -12 13 -17 13 -5 -1 -9 4 -9
11 0 6 -6 13 -14 16 -9 3 -12 0 -8 -10z"/>
<path d="M2430 3095 c0 -2 11 -21 25 -41 14 -20 25 -49 25 -65 0 -26 15 -47
26 -36 9 8 -47 135 -62 141 -8 3 -14 3 -14 1z"/>
<path d="M2388 3023 c7 -3 16 -2 19 1 4 3 -2 6 -13 5 -11 0 -14 -3 -6 -6z"/>
<path d="M2022 2980 c0 -14 2 -19 5 -12 2 6 2 18 0 25 -3 6 -5 1 -5 -13z"/>
<path d="M2030 2901 c0 -11 4 -22 9 -25 4 -3 6 6 3 19 -5 30 -12 33 -12 6z"/>
<path d="M2406 2904 c-22 -21 -20 -41 5 -54 20 -11 18 -25 -4 -25 -22 -1 -8
-62 22 -93 15 -17 31 -45 34 -62 5 -21 12 -30 26 -30 11 0 25 -2 33 -5 7 -3
19 -1 27 4 12 8 12 15 -3 46 -12 24 -23 35 -32 31 -9 -3 -14 1 -14 13 0 11 -6
22 -12 25 -9 3 -8 8 5 16 22 14 22 22 -3 50 -11 13 -21 31 -21 42 -3 35 -4 39
-19 48 -21 13 -26 12 -44 -6z"/>
<path d="M3055 2864 c5 -30 2 -44 -9 -53 -19 -16 -12 -31 13 -31 10 0 31 -7
47 -15 15 -8 29 -13 31 -12 7 8 -43 120 -56 125 -9 3 -20 10 -24 16 -5 6 -5
-7 -2 -30z"/>
<path d="M3075 2741 c-6 -6 -9 -36 -7 -68 3 -55 6 -60 39 -79 31 -18 33 -22
19 -33 -14 -12 -16 -12 -11 1 4 9 0 18 -8 21 -10 4 -14 -4 -14 -29 0 -27 4
-34 15 -29 24 9 49 -4 57 -28 3 -12 9 -17 11 -10 3 6 -2 28 -10 48 -20 46 -20
55 -1 55 15 0 13 14 -8 58 -12 25 -27 29 -27 7 0 -8 -6 -12 -14 -9 -8 3 -12
13 -9 25 4 14 11 17 29 13 30 -8 33 15 6 39 -23 21 -30 21 -35 0 -3 -15 -5
-15 -13 5 -6 14 -13 19 -19 13z"/>
<path d="M2930 2700 c0 -11 5 -20 10 -20 6 0 10 9 10 20 0 11 -4 20 -10 20 -5
0 -10 -9 -10 -20z"/>
<path d="M2600 2640 c-9 -6 -10 -10 -3 -10 6 0 15 5 18 10 8 12 4 12 -15 0z"/>
<path d="M2891 2624 c0 -11 3 -14 6 -6 3 7 2 16 -1 19 -3 4 -6 -2 -5 -13z"/>
<path d="M2906 2595 c-3 -8 -1 -15 4 -15 6 0 10 7 10 15 0 8 -2 15 -4 15 -2 0
-6 -7 -10 -15z"/>
<path d="M3765 2570 c3 -5 8 -10 11 -10 2 0 4 5 4 10 0 6 -5 10 -11 10 -5 0
-7 -4 -4 -10z"/>
<path d="M3750 2540 c-12 -7 -12 -10 3 -16 21 -8 29 -3 19 13 -5 8 -13 9 -22
3z"/>
<path d="M3123 2493 c-18 -7 -16 -34 4 -63 10 -14 16 -32 15 -41 -2 -9 9 -26
23 -37 27 -22 32 -41 13 -60 -10 -10 -10 -15 2 -22 8 -5 22 -10 31 -10 21 0
29 -19 18 -45 -10 -27 -11 -117 0 -134 5 -7 14 -11 20 -7 6 4 28 2 49 -4 51
-13 102 -3 102 20 0 10 -3 20 -7 22 -5 2 -19 26 -32 53 -60 126 -53 118 -96
117 -15 -1 -16 0 -3 4 27 8 28 31 2 43 -25 11 -31 26 -14 36 12 7 2 34 -22 61
-15 16 -16 24 -7 29 9 6 7 12 -6 21 -13 10 -22 11 -31 3 -10 -8 -18 -7 -29 5
-9 9 -17 16 -18 15 -1 0 -8 -3 -14 -6z m67 -53 c0 -5 -2 -10 -4 -10 -3 0 -8 5
-11 10 -3 6 -1 10 4 10 6 0 11 -4 11 -10z m170 -312 c0 -19 -2 -20 -10 -8 -13
19 -13 30 0 30 6 0 10 -10 10 -22z"/>
<path d="M2180 2334 c0 -30 -25 -61 -33 -41 -3 6 -6 -5 -6 -26 -1 -26 3 -36
10 -31 7 4 25 7 40 6 55 -1 61 73 9 106 -18 11 -20 10 -20 -14z"/>
<path d="M2288 2304 c-5 -20 54 -109 65 -98 3 3 4 -2 4 -12 -1 -9 4 -19 11
-21 7 -3 12 4 12 16 0 14 6 21 19 21 11 0 27 8 37 17 16 16 15 18 -5 27 -11 5
-21 14 -21 19 0 6 -8 2 -19 -7 -17 -16 -19 -16 -26 1 -6 16 -9 14 -20 -10
l-12 -29 -15 34 c-9 18 -18 40 -20 48 -3 11 -6 9 -10 -6z"/>
<path d="M3480 2210 c8 -5 20 -10 25 -10 6 0 3 5 -5 10 -8 5 -19 10 -25 10 -5
0 -3 -5 5 -10z"/>
<path d="M2189 2175 c-1 -11 -1 -23 0 -27 2 -12 -14 -9 -27 4 -9 9 -12 9 -12
-1 0 -20 26 -41 51 -41 19 0 21 4 15 32 -8 40 -25 61 -27 33z"/>
<path d="M2783 2144 l7 -49 -19 24 c-12 16 -20 20 -25 12 -4 -6 -12 -8 -18 -5
-8 5 -9 1 -5 -10 4 -10 7 -28 7 -41 0 -18 7 -24 38 -30 20 -3 47 -9 60 -12 17
-4 21 -2 16 11 -3 9 -1 16 5 16 6 0 11 -7 11 -15 0 -9 9 -15 23 -15 12 0 17 4
12 8 -6 4 -10 17 -9 29 1 12 -3 27 -7 35 -6 9 -9 7 -9 -9 0 -42 -27 -24 -50
32 -30 74 -45 82 -37 19z"/>
<path d="M2235 2169 c-12 -19 4 -57 27 -63 46 -12 58 -7 58 22 0 28 -15 52
-33 52 -5 0 -6 -8 -3 -17 6 -16 6 -16 -12 0 -22 20 -28 21 -37 6z"/>
<path d="M3940 2106 c0 -20 11 -25 43 -19 25 5 26 6 10 19 -24 18 -53 18 -53
0z"/>
<path d="M2226 2091 c-4 -5 3 -7 14 -4 23 6 26 13 6 13 -8 0 -17 -4 -20 -9z"/>
<path d="M2006 2065 c-9 -24 -8 -75 2 -75 24 0 38 26 31 60 -3 19 -7 28 -8 20
-1 -12 -3 -12 -10 -2 -7 11 -10 10 -15 -3z"/>
<path d="M2172 2068 c-7 -7 -12 -18 -12 -25 0 -17 48 -17 65 0 11 11 10 15 -6
25 -24 15 -32 15 -47 0z"/>
<path d="M4010 2070 c-13 -8 -12 -10 3 -10 9 0 17 -6 17 -14 0 -8 4 -17 10
-21 5 -3 8 7 7 25 -2 31 -12 36 -37 20z"/>
<path d="M2335 2035 c-5 -2 -22 -6 -37 -9 -16 -4 -28 -11 -28 -17 0 -6 9 -9
20 -6 10 3 27 -1 37 -9 21 -16 53 -18 53 -4 0 6 -7 10 -15 10 -8 0 -15 5 -15
11 0 6 9 8 23 4 21 -6 21 -6 3 9 -20 16 -23 17 -41 11z"/>
<path d="M2245 1990 c-3 -5 -1 -10 4 -10 6 0 11 5 11 10 0 6 -2 10 -4 10 -3 0
-8 -4 -11 -10z"/>
<path d="M4050 1990 c0 -5 7 -10 16 -10 8 0 12 5 9 10 -3 6 -10 10 -16 10 -5
0 -9 -4 -9 -10z"/>
<path d="M2065 1969 c-12 -18 3 -22 20 -5 14 14 14 16 1 16 -8 0 -18 -5 -21
-11z"/>
<path d="M2110 1960 c0 -5 7 -10 15 -10 8 0 15 5 15 10 0 6 -7 10 -15 10 -8 0
-15 -4 -15 -10z"/>
<path d="M1992 1920 c-11 -18 -9 -20 20 -20 42 0 78 10 78 20 0 16 -41 22 -56
9 -12 -9 -17 -10 -23 -1 -4 8 -11 5 -19 -8z"/>
<path d="M3255 1830 c-18 -7 -18 -8 5 -12 17 -3 9 -6 -23 -9 -32 -3 -46 -1
-43 7 2 6 -2 11 -10 11 -29 0 6 -32 38 -34 18 -1 65 -5 104 -9 60 -5 76 -3
109 15 22 12 33 22 25 22 -18 2 -33 5 -40 9 -12 6 -147 6 -165 0z"/>
<path d="M2990 1810 c-13 -8 -12 -10 3 -10 9 0 17 5 17 10 0 12 -1 12 -20 0z"/>
<path d="M2798 1793 c6 -2 18 -2 25 0 6 3 1 5 -13 5 -14 0 -19 -2 -12 -5z"/>
<path d="M4558 1789 c8 -8 134 -18 126 -10 -3 3 -34 8 -69 11 -36 3 -61 2 -57
-1z"/>
<path d="M4710 1780 c8 -5 26 -10 39 -10 32 0 24 6 -19 14 -25 4 -31 3 -20 -4z"/>
<path d="M3228 1773 c7 -3 16 -2 19 1 4 3 -2 6 -13 5 -11 0 -14 -3 -6 -6z"/>
<path d="M3230 1749 c0 -11 27 -12 34 -1 2 4 -4 9 -15 9 -10 1 -19 -2 -19 -8z"/>
<path d="M1768 3973 c7 -3 16 -2 19 1 4 3 -2 6 -13 5 -11 0 -14 -3 -6 -6z"/>
<path d="M2818 3983 c7 -3 16 -2 19 1 4 3 -2 6 -13 5 -11 0 -14 -3 -6 -6z"/>
<path d="M4410 3971 c0 -5 9 -11 21 -14 16 -4 18 -3 8 9 -13 16 -29 19 -29 5z"/>
<path d="M1513 3374 c-7 -7 -13 -20 -13 -29 0 -22 42 -16 46 7 3 25 -18 39
-33 22z"/>
<path d="M1355 3089 c-10 -15 1 -23 20 -15 9 3 13 10 10 16 -8 13 -22 13 -30
-1z"/>
<path d="M5000 3399 c0 -5 5 -7 10 -4 6 3 10 8 10 11 0 2 -4 4 -10 4 -5 0 -10
-5 -10 -11z"/>
<path d="M4880 3219 c0 -5 5 -7 10 -4 6 3 10 8 10 11 0 2 -4 4 -10 4 -5 0 -10
-5 -10 -11z"/>
<path d="M1395 2260 c3 -5 0 -10 -7 -10 -7 -1 -2 -7 12 -15 36 -21 43 -18 24
10 -15 23 -43 37 -29 15z"/>
<path d="M2575 1516 c11 -8 24 -12 28 -9 11 7 -12 23 -32 23 -11 0 -9 -4 4
-14z"/>
<path d="M3535 1510 c3 -5 11 -10 16 -10 6 0 7 5 4 10 -3 6 -11 10 -16 10 -6
0 -7 -4 -4 -10z"/>
<path d="M2485 1500 c17 -4 44 -8 60 -8 l30 0 -30 8 c-16 4 -43 8 -60 8 l-30
0 30 -8z"/>
<path d="M3348 1503 c7 -3 16 -2 19 1 4 3 -2 6 -13 5 -11 0 -14 -3 -6 -6z"/>
<path d="M3298 1493 c6 -2 18 -2 25 0 6 3 1 5 -13 5 -14 0 -19 -2 -12 -5z"/>
<path d="M3168 1463 c7 -3 16 -2 19 1 4 3 -2 6 -13 5 -11 0 -14 -3 -6 -6z"/>
<path d="M2730 1360 c8 -5 11 -10 5 -10 -22 -1 22 -20 45 -19 22 0 20 2 -14
19 -42 21 -61 26 -36 10z"/>
<path d="M2800 1312 c0 -9 40 -35 46 -29 6 6 -25 37 -37 37 -5 0 -9 -3 -9 -8z"/>
<path d="M3415 1200 c-3 -5 -2 -10 4 -10 5 0 13 5 16 10 3 6 2 10 -4 10 -5 0
-13 -4 -16 -10z"/>
<path d="M3058 1173 c7 -3 16 -2 19 1 4 3 -2 6 -13 5 -11 0 -14 -3 -6 -6z"/>
<path d="M4240 1406 c0 -8 49 -13 60 -6 6 4 -5 7 -25 8 -19 1 -35 0 -35 -2z"/>
<path d="M4110 1350 c0 -6 7 -10 15 -10 8 0 15 2 15 4 0 2 -7 6 -15 10 -8 3
-15 1 -15 -4z"/>
<path d="M4845 5246 c-99 -25 -154 -60 -131 -84 21 -20 149 9 214 48 28 17 32
23 22 35 -15 18 -37 18 -105 1z"/>
<path d="M1550 5190 c0 -76 2 -87 21 -98 15 -10 25 -10 32 -3 13 13 -6 101
-33 151 l-19 35 -1 -85z"/>
<path d="M1425 5208 c-3 -18 -2 -51 3 -73 l9 -40 12 28 c18 45 12 117 -10 117
-4 0 -11 -15 -14 -32z"/>
<path d="M5100 4810 c0 -11 12 -33 27 -48 23 -23 28 -24 31 -10 5 25 -20 72
-41 76 -12 2 -17 -3 -17 -18z"/>
<path d="M837 4494 c-14 -14 -7 -42 28 -111 40 -79 79 -123 96 -106 19 19 2
74 -44 148 -40 65 -63 85 -80 69z"/>
<path d="M5538 4340 c34 -28 100 -46 114 -32 14 14 -34 36 -97 45 l-40 6 23
-19z"/>
<path d="M731 4119 c9 -13 31 -51 49 -83 19 -33 35 -55 37 -49 2 6 13 9 23 6
57 -15 -28 98 -104 139 -19 11 -20 10 -5 -13z"/>
<path d="M640 4042 c1 -20 16 -47 48 -87 34 -42 38 -23 8 39 -27 55 -56 81
-56 48z"/>
<path d="M554 3705 c-12 -31 75 -133 146 -170 26 -13 31 -14 36 -1 9 24 -21
70 -86 129 -62 58 -86 68 -96 42z"/>
<path d="M5680 3351 c0 -26 62 -78 133 -112 56 -26 87 -29 87 -7 0 17 -66 74
-124 107 -62 36 -96 40 -96 12z"/>
<path d="M4596 1148 c-3 -13 -9 -56 -13 -97 l-6 -74 36 27 c21 16 37 33 37 40
0 10 -39 118 -45 124 -1 1 -5 -8 -9 -20z"/>
<path d="M1857 936 c-79 -33 -109 -54 -105 -74 5 -24 57 -18 121 14 61 31 87
52 87 71 0 19 -38 16 -103 -11z"/>
<path d="M3981 780 c-43 -97 -42 -99 16 -78 33 12 33 12 33 80 0 37 -4 68 -9
68 -4 0 -22 -32 -40 -70z"/>
<path d="M3268 583 c-37 -39 -78 -111 -78 -137 0 -53 61 -6 109 84 51 94 35
121 -31 53z"/>
</g>
</svg>
